<?xml version="1.0" encoding="UTF-8"?>
<svg id="Layer_2" data-name="Layer 2" xmlns="http://www.w3.org/2000/svg" viewBox="0 0 680.75 535.2">
  <defs>
    <style>
      .cls-1 {
        fill: #929293;
      }

      .cls-1, .cls-2, .cls-3, .cls-4, .cls-5, .cls-6, .cls-7, .cls-8, .cls-9, .cls-10, .cls-11, .cls-12, .cls-13, .cls-14, .cls-15, .cls-16, .cls-17, .cls-18, .cls-19 {
        stroke-width: 0px;
      }

      .cls-2, .cls-5, .cls-6 {
        fill: #ad2787;
      }

      .cls-2, .cls-6 {
        isolation: isolate;
      }

      .cls-2, .cls-20 {
        opacity: .6;
      }

      .cls-3 {
        fill: #249fbe;
      }

      .cls-4 {
        fill: #032d38;
      }

      .cls-6 {
        opacity: .7;
      }

      .cls-7 {
        fill: #df59ad;
      }

      .cls-8 {
        fill: #c9ecf4;
      }

      .cls-9 {
        fill: #ffabe7;
      }

      .cls-10 {
        fill: #931676;
      }

      .cls-11 {
        fill: #473250;
      }

      .cls-12 {
        fill: #fff;
      }

      .cls-13 {
        fill: #211628;
      }

      .cls-14 {
        fill: #fffa9c;
      }

      .cls-15 {
        fill: #c13492;
      }

      .cls-16 {
        fill: #600100;
      }

      .cls-17 {
        fill: #a32440;
      }

      .cls-18 {
        fill: #bf247a;
      }

      .cls-19 {
        fill: #d1cbd3;
      }
    </style>
  </defs>
  <g id="Layer_1-2" data-name="Layer 1">
    <g>
      <ellipse class="cls-8" cx="346.74" cy="517.59" rx="159.72" ry="17.61"/>
      <g>
        <g>
          <g>
            <path class="cls-13" d="m411.15,455.61s-17.08,24.89-14.48,51.63c2.6,26.74,19.31-7.06,19.31-7.06,0,0,1.49,21.17,8.54,23.4,7.06,2.23,13.74-19.31,13.74-19.31,0,0,6.9,12.31,11.89,11.51,9.29-1.49,14.48-40.48-2.23-65-16.71-24.51-36.77,4.83-36.77,4.83Z"/>
            <path class="cls-11" d="m412.5,451.31s-15.68,22.84-13.3,47.39,17.73-6.48,17.73-6.48c0,0,1.36,19.44,7.84,21.48,6.48,2.05,12.61-17.73,12.61-17.73,0,0,6.33,11.3,10.91,10.57,8.52-1.36,13.3-37.17-2.05-59.67s-33.76,4.43-33.76,4.43Z"/>
          </g>
          <g>
            <path class="cls-13" d="m244.14,455.61s-17.09,24.89-14.48,51.63c2.6,26.74,19.31-7.06,19.31-7.06,0,0,1.49,21.17,8.54,23.4,7.06,2.23,13.74-19.31,13.74-19.31,0,0,6.9,12.31,11.89,11.51,9.28-1.49,14.48-40.48-2.23-65-16.71-24.51-36.77,4.83-36.77,4.83Z"/>
            <path class="cls-11" d="m245.49,451.31s-15.68,22.84-13.3,47.39,17.73-6.48,17.73-6.48c0,0,1.36,19.44,7.84,21.48,6.48,2.05,12.62-17.73,12.62-17.73,0,0,6.33,11.3,10.91,10.57,8.52-1.36,13.3-37.17-2.05-59.67-15.34-22.5-33.76,4.43-33.76,4.43Z"/>
          </g>
        </g>
        <g>
          <g>
            <g>
              <path class="cls-7" d="m660.33,295.46s22.51,11.34,16.83,18.98c-5.69,7.64-30.94,1.34-30.94,1.34,0,0-.01,0-.02.01,0,0-.02.02-.04.03-1.21,1.03-20.92,17.16-39.96.53,0,0-61.05,46.29-119.16,11.28-6.23-3.74-12.42-8.42-18.49-14.17l-6.13-58.85-.92-8.8,34.51-1.7,7.86-.39s31.94,31.14,89.04,16.93c0,0,7.26-27.84,24.1-36.7,2.83-1.48,5.01-1.72,6.67-1.09h0c8.18,3.14,3.71,27.54,3.71,27.54,0,0,31.67-17.71,39.69-8.3,8.04,9.41-8.09,22.43-8.09,22.43,0,0,23,1.77,21.72,13.19-1.28,11.42-20.37,17.75-20.37,17.75Z"/>
              <path class="cls-5" d="m631.15,254.55c3,4.2,5.56,8.44,7.77,12.8,2.22,4.35,4.01,8.84,5.34,13.45,1.34,4.61,2.18,9.35,2.62,14.21.41,4.87.38,9.82.27,15.01,2.34-4.63,3.62-9.77,4.05-15.02.37-5.25-.17-10.63-1.67-15.72-1.47-5.1-3.85-9.94-6.95-14.19-1.56-2.12-3.27-4.11-5.18-5.9-1.93-1.76-3.94-3.43-6.26-4.64Z"/>
            </g>
            <path class="cls-5" d="m646.2,315.78s-.02.02-.04.03c-1.21,1.03-20.92,17.16-39.96.53,0,0-61.05,46.29-119.16,11.28-6.23-3.74-12.42-8.42-18.49-14.17l-6.13-58.85c5.95,2.59,13.02,7.65,21.28,15.78,66.11,65.1,125.91,34.07,125.91,34.07,16.03,21.13,35.85,11.69,36.6,11.33Z"/>
            <path class="cls-9" d="m623.66,222.86h0s-20.01,5.45-22.97,43.33c0,0-66.11,20.05-102.89-20.05-.64-.69-1.23-1.37-1.8-2.04l7.86-.39s31.94,31.14,89.04,16.93c0,0,7.26-27.84,24.1-36.7,2.83-1.48,5.01-1.72,6.67-1.09Z"/>
          </g>
          <g>
            <g>
              <path class="cls-7" d="m20.42,295.46s-22.51,11.34-16.83,18.98c5.69,7.64,30.94,1.34,30.94,1.34,0,0,.01,0,.02.01,0,0,.02.02.04.03,1.21,1.03,20.92,17.16,39.96.53,0,0,61.05,46.29,119.16,11.28,6.23-3.74,12.42-8.42,18.49-14.17l6.13-58.85.92-8.8-34.51-1.7-7.86-.39s-31.94,31.14-89.04,16.93c0,0-7.26-27.84-24.1-36.7-2.84-1.48-5.01-1.72-6.67-1.09h0c-8.17,3.14-3.71,27.54-3.71,27.54,0,0-31.67-17.71-39.69-8.3-8.04,9.41,8.09,22.43,8.09,22.43,0,0-23,1.77-21.72,13.19,1.28,11.42,20.37,17.75,20.37,17.75Z"/>
              <path class="cls-5" d="m49.6,254.55c-3,4.2-5.56,8.44-7.77,12.8-2.22,4.35-4.01,8.84-5.34,13.45-1.34,4.61-2.18,9.35-2.62,14.21-.41,4.87-.38,9.82-.27,15.01-2.34-4.63-3.62-9.77-4.05-15.02-.37-5.25.17-10.63,1.66-15.72,1.47-5.1,3.85-9.94,6.95-14.19,1.56-2.12,3.27-4.11,5.18-5.9,1.93-1.76,3.94-3.43,6.26-4.64Z"/>
            </g>
            <path class="cls-5" d="m34.56,315.78s.02.02.04.03c1.21,1.03,20.92,17.16,39.96.53,0,0,61.05,46.29,119.16,11.28,6.23-3.74,12.42-8.42,18.49-14.17l6.13-58.85c-5.96,2.59-13.02,7.65-21.28,15.78-66.11,65.1-125.91,34.07-125.91,34.07-16.03,21.13-35.85,11.69-36.6,11.33Z"/>
            <path class="cls-9" d="m57.09,222.86h0s20.01,5.45,22.97,43.33c0,0,66.11,20.05,102.89-20.05.64-.69,1.23-1.37,1.8-2.04l-7.86-.39s-31.94,31.14-89.04,16.93c0,0-7.26-27.84-24.1-36.7-2.83-1.48-5.01-1.72-6.67-1.09Z"/>
          </g>
        </g>
        <g>
          <g>
            <g>
              <path class="cls-15" d="m217.8,18.18s.11,51.78,28.18,68.52l56.77-12.81-1.57-19.22s-47.73-37.6-83.39-36.49Z"/>
              <path class="cls-11" d="m217.8,18.18s.11,51.78,28.18,68.52c12.04-31.78-28.18-68.52-28.18-68.52Z"/>
            </g>
            <g>
              <path class="cls-15" d="m470.87,18.18s-.11,51.78-28.18,68.52l-56.77-12.81,1.57-19.22s47.73-37.6,83.38-36.49Z"/>
              <path class="cls-11" d="m470.87,18.18s-.11,51.78-28.18,68.52c-12.04-31.78,28.18-68.52,28.18-68.52Z"/>
            </g>
          </g>
          <path class="cls-7" d="m509.69,386.53l-18.57-11.89,1.48,37.89-17.83-4.45-1.48,34.91-16.34-15.6s-1.12,38.63-26,41.23c-24.89,2.6-30.46-36.76-30.46-36.76,0,0-60.54,18.94-108.82,1.11,0,0-.37,35.53-30.08,35.79-29.72.24-31.94-49.52-31.94-49.52l-22.29,6.68v-23.77l-15.59,5.2,4.45-23.03-19.68,5.57,3.71-34.91-13.75,14.48v-44.19l-11.89.36,17.83-40.48h-11.14s12.62-32.31,20.8-67.22c1.41-5.99,3.44-14.1,6.19-23.54,8.29-28.45,23.1-68.97,46.66-99.9.23-.31.46-.61.7-.91,14.07-18.22,31.22-32.98,51.93-39.82l-17.46-5.94s10.03-6.69,28.6-4.09c0,0-.37-6.32-15.98-8.54,0,0,15.6-15.23,31.94-5.21,0,0,7.06-10.39-6.31-14.85,0,0,27.11-11.14,30.82,5.94,0,0,10.41-19.69,30.83-18.2,0,0-9.66,28.23,40.85,53.85,11.65,5.91,22.93,14.82,33.45,26.06.02.02.04.04.06.07,2.42,2.59,4.8,5.32,7.14,8.15.01.01.01.02.01.02,21.6,26.25,39.18,62.42,48.58,101.99,4.26,17.95,6.83,36.61,7.33,55.36,2.2,82.64,10.14,96.88,10.38,97.31l-19.29-6.68,11.14,47.54Z"/>
          <g>
            <path class="cls-6" d="m498.54,338.99l19.29,6.68c-.24-.43-8.19-14.67-10.38-97.31-.5-18.75-3.08-37.4-7.34-55.36,0,0,0,0,.01,0-.05-.2-.1-.41-.15-.61-.5-2.1-1.03-4.19-1.58-6.27-.12-.45-.24-.89-.36-1.33-.54-2.01-1.1-4-1.68-5.99-.06-.21-.12-.41-.18-.62-.64-2.15-1.3-4.29-1.98-6.41-.13-.41-.26-.82-.4-1.23-.7-2.14-1.41-4.26-2.15-6.36-.05-.15-.1-.29-.16-.44-.72-2.04-1.47-4.07-2.24-6.08-.11-.29-.22-.59-.33-.88-.79-2.07-1.61-4.11-2.45-6.14-.13-.32-.27-.64-.4-.95-.85-2.04-1.71-4.06-2.6-6.05-.01-.03-.03-.06-.04-.09-.89-2-1.81-3.98-2.75-5.94-.18-.37-.35-.74-.53-1.11-.92-1.91-1.85-3.8-2.81-5.66-.13-.26-.27-.51-.4-.77-.87-1.68-1.75-3.34-2.64-4.98-.19-.35-.38-.71-.58-1.06-.95-1.73-1.92-3.43-2.91-5.12-.27-.46-.54-.92-.82-1.38-.89-1.51-1.8-3-2.71-4.47-.24-.38-.48-.76-.72-1.14-.65-1.03-1.3-2.05-1.96-3.05.03.05.06.11.08.17-4.18-6.4-8.57-12.45-13.16-18.02,0,0-19.34,71.24,39.53,98.23,1.57,10.17,2.55,20.49,2.82,30.84,2.02,76.09,9.35,89.21,9.57,89.59l-17.78-6.14,10.26,43.78-17.1-10.94,1.36,34.89-16.42-4.1-1.36,32.15-15.05-14.37s-1.02,35.58-23.94,37.96c-22.91,2.4-28.04-33.85-28.04-33.85,0,0-40.41,42.24-100.21,1.02,0,0-.34,32.72-27.71,32.95-27.36.23-29.41-45.6-29.41-45.6l-20.51,6.15v-21.89l-14.37,4.78,4.11-21.19-18.13,5.12,3.43-32.14-12.66,13.34v-40.71l-10.17.33-15.15,34.4,11.89-.36v44.19l13.75-14.48-3.71,34.91,19.68-5.57-4.45,23.03,15.59-5.2v23.77l22.29-6.68s2.22,49.76,31.94,49.52c29.71-.25,30.08-35.79,30.08-35.79,48.28,17.83,108.82-1.11,108.82-1.11,0,0,5.57,39.37,30.46,36.76,24.88-2.59,26-41.23,26-41.23l16.34,15.6,1.48-34.91,17.83,4.45-1.48-37.89,18.57,11.89-11.14-47.55Z"/>
            <path class="cls-6" d="m236.16,95.4l-1.21-.92c-9.74,12.79-17.98,27.21-24.89,41.74-.03.06-.06.12-.09.18-.52,1.1-1.03,2.19-1.54,3.29-.08.16-.15.33-.22.49-.46,1-.91,1.99-1.35,2.99-.1.22-.2.44-.29.66-.42.94-.83,1.88-1.24,2.82-.11.25-.22.5-.33.75-.39.91-.78,1.82-1.16,2.73-.11.27-.23.54-.34.81-.37.9-.74,1.79-1.11,2.69-.11.27-.22.53-.33.8-.37.91-.73,1.82-1.09,2.72-.1.24-.19.48-.29.72-.37.95-.74,1.9-1.1,2.84-.08.19-.15.39-.22.58-.42,1.11-.84,2.21-1.25,3.31,0,.02-.02.04-.03.07-.84,2.26-1.65,4.49-2.42,6.7-.11.31-.22.62-.32.93-.27.76-.53,1.52-.79,2.28-.14.41-.28.82-.42,1.22-.22.65-.44,1.3-.66,1.95-.15.44-.29.88-.44,1.32-.2.6-.4,1.2-.59,1.8-.15.45-.29.9-.44,1.35-.19.58-.37,1.15-.55,1.72-.14.45-.28.9-.42,1.34-.18.56-.35,1.12-.52,1.68-.14.44-.27.87-.4,1.31-.17.57-.34,1.13-.51,1.69-.12.4-.24.81-.36,1.21-.18.6-.35,1.19-.53,1.77-.1.35-.21.7-.31,1.04-.04.14-.08.28-.12.42,0,0,0,0,0,0-2.75,9.43-4.79,17.55-6.19,23.54-8.17,34.91-20.8,67.22-20.8,67.22h10.37l13.73-31.18h-10.26s11.62-29.75,19.15-61.9c64.94-30.32,41.87-96.65,41.87-96.65Z"/>
          </g>
          <path class="cls-9" d="m444.33,82.78c-7.23-7.09-19.98-17.01-38.64-22.48-31.19-9.15-41.73-26.29-46.06-42.11,0,0-13.36,1.02-17.45,20.71,0,0-9.66-19.79-17.83-18.58,0,0,2.98,11.41-1.48,20.18,0,0-10.77-6.44-18.57-5.69,0,0,9.29,5.94,9.29,15.59,0,0-10.03-3.71-17.09-2.59,0,0,5.2,2.23,4.46,8.91,0,0-28.55-.63-64.79,38.69,0,0-.18-.65-.51-1.83,14.07-18.22,31.22-32.98,51.93-39.82l-17.46-5.94s10.03-6.69,28.6-4.09c0,0-.37-6.32-15.98-8.54,0,0,15.6-15.23,31.94-5.21,0,0,7.06-10.39-6.31-14.85,0,0,27.11-11.14,30.82,5.94,0,0,10.41-19.69,30.83-18.2,0,0-9.66,28.23,40.85,53.85,11.65,5.91,22.93,14.82,33.45,26.06Z"/>
        </g>
        <polygon class="cls-2" points="171.67 285.14 172.44 285.14 169.76 291.21 168.99 291.24 171.67 285.14"/>
        <g>
          <g>
            <g>
              <path class="cls-11" d="m572.48,80.1c-1.86,11.78-5.52,24.04-11.86,36.22-4.89,9.38-11.35,18.71-19.8,27.69-11.74,12.49-27.29,24.34-47.72,34.81,0,0-19.55-5.25-32-25.41-6.94-11.25-11.68-27.16-9.55-49.38.25-2.77.62-5.65,1.11-8.62,0,0,7.49-3.48,19.34-10.95,4.5-2.83,9.62-6.24,15.2-10.27,7.83-5.65,16.55-12.49,25.71-20.61,4.54-4.03,9.2-8.38,13.88-13.06,11.54-11.49,23.33-24.94,34.55-40.5.01.04.03.05.03.05.62,1.3,10.59,22.43,12.38,51.16.56,9,.31,18.76-1.26,28.89Z"/>
              <path class="cls-19" d="m572.48,80.1c-16.29-1.97-38.7-8.32-59.57-26.53,4.54-4.03,9.2-8.38,13.88-13.06,8.89,5.55,23.8,11.34,46.95,10.71.56,9,.31,18.76-1.26,28.89Z"/>
              <path class="cls-19" d="m560.61,116.31c-4.89,9.38-11.35,18.71-19.8,27.69-14.43-4.19-48.93-18.11-68.46-58.8-.12-.26-.25-.51-.36-.76,4.5-2.83,9.62-6.24,15.2-10.27,1.83,5.05,14.88,34.4,73.42,42.14Z"/>
            </g>
            <g class="cls-20">
              <path class="cls-11" d="m572.48,80.1c-1.86,11.78-5.52,24.04-11.86,36.22-4.89,9.38-11.35,18.71-19.8,27.69-11.74,12.49-27.29,24.34-47.72,34.81,0,0-19.55-5.25-32-25.41C594.22,114.23,562.21,2.93,561.37.05c.62,1.3,10.59,22.43,12.38,51.16.56,9,.31,18.76-1.26,28.89Z"/>
            </g>
            <path class="cls-1" d="m561.37.05s-25.29,66.53-109.82,103.98c.25-2.77.62-5.65,1.11-8.62,0,0,7.49-3.48,19.34-10.95,4.5-2.83,9.62-6.24,15.2-10.27,7.83-5.65,16.55-12.49,25.71-20.61,4.54-4.03,9.2-8.38,13.88-13.06,11.54-11.49,23.33-24.94,34.55-40.5.01.04.02.05.02.05Z"/>
          </g>
          <g>
            <g>
              <path class="cls-11" d="m116.34,80.1c1.86,11.78,5.52,24.04,11.86,36.22,4.89,9.38,11.35,18.71,19.8,27.69,11.74,12.49,27.29,24.34,47.72,34.81,0,0,19.55-5.25,32-25.41,6.94-11.25,11.68-27.16,9.55-49.38-.25-2.77-.62-5.65-1.11-8.62,0,0-7.49-3.48-19.34-10.95-4.5-2.83-9.62-6.24-15.2-10.27-7.83-5.65-16.55-12.49-25.71-20.61-4.54-4.03-9.2-8.38-13.88-13.06-11.54-11.49-23.33-24.94-34.55-40.5-.01.04-.03.05-.03.05-.62,1.3-10.59,22.43-12.38,51.16-.56,9-.31,18.76,1.26,28.89Z"/>
              <path class="cls-19" d="m116.34,80.1c16.29-1.97,38.7-8.32,59.57-26.53-4.54-4.03-9.2-8.38-13.88-13.06-8.89,5.55-23.8,11.34-46.95,10.71-.56,9-.31,18.76,1.26,28.89Z"/>
              <path class="cls-19" d="m128.21,116.31c4.89,9.38,11.35,18.71,19.8,27.69,14.43-4.19,48.93-18.11,68.46-58.8.12-.26.25-.51.36-.76-4.5-2.83-9.62-6.24-15.21-10.27-1.83,5.05-14.88,34.4-73.42,42.14Z"/>
            </g>
            <g class="cls-20">
              <path class="cls-11" d="m116.34,80.1c1.86,11.78,5.52,24.04,11.86,36.22,4.89,9.38,11.35,18.71,19.8,27.69,11.74,12.49,27.29,24.34,47.72,34.81,0,0,19.55-5.25,32-25.41C94.6,114.23,126.61,2.93,127.45.05c-.62,1.3-10.59,22.43-12.38,51.16-.56,9-.31,18.76,1.26,28.89Z"/>
            </g>
            <path class="cls-1" d="m127.45.05s25.29,66.53,109.82,103.98c-.25-2.77-.62-5.65-1.11-8.62,0,0-7.49-3.48-19.34-10.95-4.5-2.83-9.62-6.24-15.2-10.27-7.83-5.65-16.55-12.49-25.71-20.61-4.54-4.03-9.2-8.38-13.88-13.06C150.48,29.01,138.69,15.57,127.48,0c-.01.04-.03.05-.03.05Z"/>
          </g>
        </g>
        <g>
          <g>
            <path class="cls-16" d="m407.26,267.94v66.57c0,11.06-2.86,21.45-7.91,30.46-8.14,14.56-21.92,25.53-38.39,29.93-5.17,1.39-10.6,2.13-16.21,2.13h-.02c-5.61,0-11.04-.74-16.21-2.14-16.48-4.4-30.25-15.37-38.39-29.91-5.05-9.01-7.91-19.4-7.91-30.46v-66.57c2.04,1.12,4.24,2.2,6.55,3.2,9.08,3.97,20.21,6.97,32.6,8.65,7.4,1.02,15.25,1.56,23.37,1.56s15.96-.55,23.36-1.55c12.39-1.7,23.5-4.69,32.6-8.67,2.32-1,4.52-2.08,6.56-3.2Z"/>
            <path class="cls-17" d="m399.35,364.96c-8.14,14.56-21.92,25.53-38.39,29.93-5.17,1.39-10.6,2.13-16.21,2.13h-.02c-5.61,0-11.04-.74-16.21-2.14-16.48-4.4-30.25-15.37-38.39-29.91,10.67-19.13,31.12-32.07,54.6-32.07h.02c23.48,0,43.92,12.93,54.6,32.07Z"/>
            <path class="cls-14" d="m361.35,391.09c0,1.36-.13,2.61-.38,3.79-5.17,1.39-10.6,2.13-16.21,2.13h-.02c-5.61,0-11.04-.74-16.21-2.14-.25-1.17-.38-2.44-.38-3.78,0-21.33,7.43-38.64,16.61-38.64,9.17,0,16.59,17.3,16.59,38.64Z"/>
            <g>
              <path class="cls-14" d="m401.21,275.45c0,21.33-7.43,38.64-16.59,38.64-8.55,0-15.58-15-16.51-34.28,12.39-1.7,23.5-4.69,32.6-8.67.32,1.33.5,2.76.5,4.31Z"/>
              <path class="cls-14" d="m321.38,279.79c-.93,19.3-7.96,34.3-16.49,34.3-9.18,0-16.61-17.3-16.61-38.64,0-1.55.18-2.98.5-4.31,9.08,3.97,20.21,6.97,32.6,8.65Z"/>
            </g>
            <path class="cls-15" d="m414.74,263.02h0c-3.87,5.08-9.12,9-14.62,12.28-5.55,3.26-11.52,5.75-17.6,7.75-12.22,3.91-25.03,5.67-37.78,5.68-12.73.01-25.55-1.75-37.77-5.67-6.1-1.99-12.06-4.47-17.61-7.73-5.49-3.29-10.73-7.21-14.59-12.26-.01-.01-.02-.03-.03-.04,5.81,2.49,11.56,4.21,17.37,5.58,5.79,1.37,11.62,2.36,17.46,3.15,11.68,1.56,23.43,2.2,35.18,2.22,11.76,0,23.49-.64,35.17-2.21,5.84-.77,11.68-1.77,17.47-3.14,5.8-1.39,11.55-3.1,17.35-5.61Z"/>
            <path class="cls-9" d="m414.74,263.02h0c-.85.44-1.69.88-2.55,1.3-6.76,3.26-14.02,5.75-21.44,7.75-14.89,3.91-30.49,5.67-46.02,5.68-15.52.01-31.12-1.75-46.01-5.67-7.43-1.99-14.69-4.47-21.45-7.73-.85-.42-1.68-.85-2.52-1.28-.01-.01-.02-.03-.03-.04,5.81,2.49,11.56,4.21,17.37,5.58,5.79,1.37,11.62,2.36,17.46,3.15,11.68,1.56,23.43,2.2,35.18,2.22,11.76,0,23.49-.64,35.17-2.21,5.84-.77,11.68-1.77,17.47-3.14,5.8-1.39,11.55-3.1,17.35-5.61Z"/>
            <path class="cls-10" d="m293.5,398.85c7.99,5.51,16.26,8.9,24.84,11.13,8.55,2.22,17.3,3.19,26.07,3.22,8.77-.05,17.51-1.02,26.06-3.23,8.57-2.23,16.85-5.61,24.84-11.12-2.06,4.43-5.31,8.33-9.04,11.65-3.75,3.32-8.04,6.03-12.59,8.18-9.12,4.28-19.24,6.31-29.28,6.33-10.04-.04-20.15-2.06-29.27-6.34-4.54-2.15-8.84-4.86-12.59-8.18-3.73-3.32-6.98-7.21-9.05-11.64Z"/>
          </g>
          <g>
            <g>
              <circle class="cls-18" cx="426.23" cy="183.53" r="35.67"/>
              <circle class="cls-12" cx="429.97" cy="179.79" r="35.67"/>
              <circle class="cls-3" cx="431.28" cy="182.58" r="19.09"/>
              <circle class="cls-4" cx="431.24" cy="182.57" r="9.63"/>
              <path class="cls-12" d="m429.46,175.54c0,2.65-2.15,4.8-4.8,4.8s-4.8-2.15-4.8-4.8,2.15-4.8,4.8-4.8,4.8,2.15,4.8,4.8Z"/>
            </g>
            <g>
              <circle class="cls-18" cx="254.39" cy="183.53" r="35.67" transform="translate(17.31 388.93) rotate(-76.71)"/>
              <circle class="cls-12" cx="258.13" cy="179.78" r="35.67" transform="translate(23.84 389.69) rotate(-76.71)"/>
              <circle class="cls-3" cx="259.44" cy="182.58" r="19.09" transform="translate(37.66 409.42) rotate(-80.78)"/>
              <circle class="cls-4" cx="259.41" cy="182.57" r="9.63"/>
              <path class="cls-12" d="m257.63,175.54c0,2.65-2.15,4.8-4.8,4.8s-4.8-2.15-4.8-4.8,2.15-4.8,4.8-4.8,4.8,2.15,4.8,4.8Z"/>
            </g>
            <g>
              <circle class="cls-18" cx="341.72" cy="221.45" r="35.68"/>
              <circle class="cls-12" cx="345.47" cy="217.71" r="35.68"/>
              <circle class="cls-3" cx="346.74" cy="220.6" r="19.09"/>
              <circle class="cls-4" cx="346.74" cy="220.6" r="9.63"/>
              <path class="cls-12" d="m344.95,213.57c0,2.65-2.15,4.8-4.8,4.8s-4.8-2.15-4.8-4.8,2.15-4.8,4.8-4.8,4.8,2.15,4.8,4.8Z"/>
            </g>
          </g>
        </g>
      </g>
    </g>
  </g>
</svg>