<?xml version="1.0" encoding="UTF-8"?>
<svg id="Layer_2" data-name="Layer 2" xmlns="http://www.w3.org/2000/svg" viewBox="0 0 597.94 671.84">
  <defs>
    <style>
      .cls-1 {
        fill: #b70401;
      }

      .cls-1, .cls-2, .cls-3, .cls-4, .cls-5, .cls-6, .cls-7, .cls-8, .cls-9, .cls-10, .cls-11, .cls-12 {
        stroke-width: 0px;
      }

      .cls-2 {
        fill: #c9ecf4;
      }

      .cls-3 {
        fill: #992f1d;
      }

      .cls-4 {
        fill: #d92018;
      }

      .cls-5 {
        fill: #433352;
      }

      .cls-6 {
        fill: #fff;
      }

      .cls-7 {
        fill: #fce6bb;
      }

      .cls-8 {
        fill: #b20000;
      }

      .cls-9 {
        fill: #530700;
      }

      .cls-10 {
        fill: #900;
      }

      .cls-11 {
        fill: #ff7878;
      }

      .cls-12 {
        fill: #645374;
      }
    </style>
  </defs>
  <g id="Layer_1-2" data-name="Layer 1">
    <g>
      <ellipse class="cls-2" cx="289.97" cy="653.73" rx="260.73" ry="17.61"/>
      <g>
        <g>
          <path class="cls-7" d="m518.3,210.74s7.06-19.87,22.47-24.33c0,0-5.1,20.98-3.86,35.28l-18.61-10.96Z"/>
          <path class="cls-7" d="m547.3,217.75s13.76-15.98,29.74-14.56c0,0-12.34,17.73-16.35,31.51l-13.39-16.94Z"/>
          <path class="cls-7" d="m564.83,241.11s19.56-7.87,33.11.73c0,0-19.1,10.08-28.99,20.47l-4.11-21.2Z"/>
          <g>
            <g>
              <path class="cls-4" d="m564.67,265.81s-.01.02-.01.08c-.13,1.58-2.66,26.93-27.89,28.63,0,0-10.44,75.89-76.29,92.24-7.04,1.76-14.72,2.82-23.09,3.04l-52.83-42.84,28.49-31.44s44.6-.57,74.94-50.99c0,0-14.56-24.82-8.91-42.98.6-1.95,1.37-3.34,2.27-4.27,7.51-7.91,23.77,15.64,23.77,15.64,0,0,9.87-34.92,22.19-33.94,12.34.97,10.14,21.58,10.14,21.58,0,0,17.51-15.01,24.68-6.03,7.18,8.97-1.86,26.95-1.86,26.95,0,0,23.94-7.91,25.33,1.52,1.37,9.42-20.93,22.82-20.93,22.82Z"/>
              <path class="cls-1" d="m510.73,233.18c5.09.85,9.9,2.04,14.55,3.56,4.65,1.51,9.09,3.42,13.29,5.74,4.21,2.31,8.16,5.07,11.9,8.2,3.73,3.15,7.22,6.67,10.8,10.42-1.62-4.93-4.35-9.47-7.76-13.48-3.45-3.98-7.63-7.39-12.3-9.94-4.65-2.57-9.75-4.31-14.94-5.12-2.6-.4-5.22-.6-7.83-.51-2.61.12-5.22.36-7.71,1.14Z"/>
            </g>
            <path class="cls-1" d="m564.66,265.89c-.13,1.58-2.66,26.93-27.89,28.63,0,0-10.44,75.89-76.29,92.24-21.48-12.87-49.39-32.99-5.44-32.17,63.52,1.18,77.25-70.38,77.25-70.38,24.45,6.73,31.9-16.81,32.36-18.33Z"/>
          </g>
          <path class="cls-11" d="m495.2,265.67c-30.08,53.32-82.14,49.85-82.14,49.85,0,0,44.6-.57,74.94-50.99,0,0-14.56-24.82-8.91-42.98.6-1.95,1.37-3.34,2.27-4.27-2.32,24.38,13.84,48.4,13.84,48.4Z"/>
        </g>
        <g>
          <path class="cls-7" d="m79.64,210.74s-7.06-19.87-22.47-24.33c0,0,5.1,20.98,3.86,35.28l18.61-10.96Z"/>
          <path class="cls-7" d="m50.64,217.75s-13.76-15.98-29.74-14.56c0,0,12.34,17.73,16.35,31.51l13.39-16.94Z"/>
          <path class="cls-7" d="m33.11,241.11s-19.56-7.87-33.11.73c0,0,19.1,10.08,28.99,20.47l4.11-21.2Z"/>
          <g>
            <g>
              <path class="cls-4" d="m33.27,265.81s.01.02.01.08c.13,1.58,2.66,26.93,27.89,28.63,0,0,10.44,75.89,76.29,92.24,7.04,1.76,14.72,2.82,23.09,3.04l52.83-42.84-28.49-31.44s-44.6-.57-74.94-50.99c0,0,14.56-24.82,8.91-42.98-.6-1.95-1.37-3.34-2.27-4.27-7.51-7.91-23.77,15.64-23.77,15.64,0,0-9.87-34.92-22.2-33.94-12.34.97-10.14,21.58-10.14,21.58,0,0-17.51-15.01-24.68-6.03-7.17,8.97,1.86,26.95,1.86,26.95,0,0-23.94-7.91-25.33,1.52-1.37,9.42,20.93,22.82,20.93,22.82Z"/>
              <path class="cls-1" d="m87.21,233.18c-5.09.85-9.9,2.04-14.55,3.56-4.65,1.51-9.09,3.42-13.29,5.74-4.21,2.31-8.16,5.07-11.9,8.2-3.73,3.15-7.22,6.67-10.8,10.42,1.62-4.93,4.35-9.47,7.76-13.48,3.45-3.98,7.63-7.39,12.3-9.94,4.65-2.57,9.75-4.31,14.94-5.12,2.6-.4,5.22-.6,7.83-.51,2.61.12,5.22.36,7.71,1.14Z"/>
            </g>
            <path class="cls-1" d="m33.28,265.89c.13,1.58,2.66,26.93,27.89,28.63,0,0,10.44,75.89,76.29,92.24,21.48-12.87,49.39-32.99,5.44-32.17-63.52,1.18-77.25-70.38-77.25-70.38-24.45,6.73-31.9-16.81-32.36-18.33Z"/>
          </g>
          <path class="cls-11" d="m102.74,265.67c30.09,53.32,82.14,49.85,82.14,49.85,0,0-44.6-.57-74.94-50.99,0,0,14.56-24.82,8.91-42.98-.6-1.95-1.37-3.34-2.27-4.27,2.32,24.38-13.85,48.4-13.85,48.4Z"/>
        </g>
        <g>
          <g>
            <g>
              <path class="cls-4" d="m228.22,577.39c-29.53,13.37-37.33,46.25-46.25,58.5-3.38,4.65-12.45,7.05-22.4,8.25-16.29,1.96-34.97.67-34.97.67-3.61,1.71-6.93,2.7-9.97,3.14-15.65,2.28-23.47-9.83-23.47-9.83h-.01c-.22,0-4.8-.02-9.92-1.65-8.31-2.64-18.02-9.48-12.9-27.32,9.91-34.53,57.38-36.78,57.38-36.78l11.53-53.44s.01-.04.01-.04l6.84-31.75,33.98-11.69,52.93,7.24s8.81,26.81,10.73,52.17c1.43,18.81-.93,36.84-13.51,42.53Z"/>
              <path class="cls-8" d="m91.17,638.12h-.01c-.22,0-4.8-.02-9.92-1.65-.69-36.56,20.15-39.58,20.15-39.58-16.34,8.73-10.22,41.23-10.22,41.23Z"/>
              <path class="cls-8" d="m124.6,644.81c-3.61,1.71-6.93,2.7-9.97,3.14-4.48-27.01,11.45-39.36,11.45-39.36-8.73,14.67-1.48,36.22-1.48,36.22Z"/>
            </g>
            <path class="cls-7" d="m72.79,606.02s-24,3.2-19.6,34.54c0,0,13.55-11.25,23.95-7.01,0,0,6.17-13.81-4.35-27.53Z"/>
            <path class="cls-7" d="m102.32,619.56s-24,3.2-19.6,34.54c0,0,13.55-11.25,23.95-7.01,0,0,6.17-13.81-4.35-27.53Z"/>
            <path class="cls-7" d="m133.28,614.14s-26.74,7.07-17.26,41.96c0,0,13.74-14.7,26.14-11.38,0,0,5.01-16.54-8.88-30.58Z"/>
          </g>
          <path class="cls-10" d="m228.22,577.39c-29.53,13.37-37.33,46.25-46.25,58.5-3.38,4.65-12.45,7.05-22.4,8.25,10.47-14,22.29-37.63,1.91-56.08-30.39-27.49-24.48-67.62-24.25-69.12.01-.03.01-.04.01-.04l57.66-7.71s26.11,12.25,46.83,23.68c1.43,18.81-.93,36.84-13.51,42.53Z"/>
        </g>
        <g>
          <g>
            <g>
              <path class="cls-4" d="m489.4,655.5c-5.29.95-9.83.36-10.05.33h-.01s-9.34,11-24.56,6.68c-2.94-.82-6.11-2.24-9.46-4.42,0,0-12.13-.76-25.16-3.17-13.02-2.42-26.94-6.51-30.56-13.16-7.25-13.32-10.68-46.93-38.2-64.05-16.69-10.37-9.6-42.83-1.44-66.76,5.3-15.54,11.05-27.49,11.05-27.49l40.42-.2,13-.07,27.69,13.81,4.48,2.23,7.08,86.91s46.76,8.43,52.08,43.96c2.75,18.35-7.78,23.87-16.36,25.39Z"/>
              <path class="cls-8" d="m479.34,655.84h.01c.22.03,4.76.61,10.05-.34,5.46-36.15-14.81-41.87-14.81-41.87,15.06,10.78,4.74,42.21,4.74,42.21Z"/>
              <path class="cls-8" d="m445.31,658.1c3.36,2.17,6.52,3.59,9.47,4.42,7.97-26.19-6.21-40.52-6.21-40.52,6.73,15.68-3.26,36.1-3.26,36.1Z"/>
            </g>
            <path class="cls-7" d="m501.75,626.41s23.38,6.31,14.92,36.81c0,0-11.96-12.93-22.83-10.08,0,0-4.31-14.5,7.91-26.73Z"/>
            <path class="cls-7" d="m471.93,635.03s23.38,6.31,14.92,36.81c0,0-11.96-12.93-22.83-10.08,0,0-4.31-14.5,7.91-26.73Z"/>
            <path class="cls-7" d="m440.72,626.56s25.59,10.51,11.63,43.86c0,0-11.71-16.37-24.43-14.7,0,0-2.81-17.05,12.8-29.16Z"/>
          </g>
          <path class="cls-11" d="m505.76,630.11c-16.19-33.73-60.44-38.15-60.44-38.15l-3.2-81.34v-13.61l4.48,2.23,7.08,86.91s46.76,8.43,52.08,43.96Z"/>
          <path class="cls-10" d="m420.16,654.92c-13.02-2.42-26.94-6.51-30.56-13.16-7.25-13.32-10.68-46.93-38.2-64.05-16.69-10.37-9.6-42.83-1.44-66.76l51.48-27.69,30.34,27.17s-6.02,44.58-24.59,78c-11.99,21.57,1.74,49.43,12.98,66.49Z"/>
        </g>
        <g>
          <path class="cls-4" d="m341.94,0c-26.71-.32-48.77,19.85-51.46,45.78-.23,2.26-1.51,4.26-3.51,5.34-3.89,2.1-7.78,4.54-11.63,7.4-33.35,24.71-52.05,70.49-55.59,136.06l21.94,1.18c3.15-58.52,18.78-98.69,46.45-119.38.02-.02.04-.03.06-.05,3.18-2.37,7.68-1.39,9.79,1.97,9.04,14.4,25.06,23.97,43.31,23.97,28.91,0,52.21-23.98,51.1-53.14C391.39,22.12,368.98.33,341.94,0Z"/>
          <path class="cls-1" d="m341.32,102.28c-18.25,0-34.27-9.58-43.31-23.98-2.11-3.36-6.6-4.34-9.79-1.98-.02.02-.04.03-.06.05-27.67,20.69-43.3,60.86-46.45,119.38l-21.95-1.19c.1-1.82.21-3.63.33-5.42l20.53,1.11c3.14-58.52,18.78-98.69,46.45-119.38.02-.02.04-.03.07-.05,3.19-2.36,7.68-1.38,9.79,1.98,9.04,14.39,25.06,23.98,43.31,23.98,28.91,0,52.21-23.99,51.1-53.14-.07-1.76-.22-3.49-.47-5.2.9,3.44,1.43,7.02,1.57,10.69,1.11,29.15-22.2,53.14-51.1,53.14Z"/>
          <path class="cls-11" d="m384.97,24.61c-9.22-12.74-24.14-21.11-40.83-21.31-26.71-.31-48.76,19.85-51.47,45.79-.23,2.25-1.52,4.25-3.51,5.33-3.89,2.1-7.78,4.55-11.64,7.4-32.81,24.32-51.44,69.02-55.4,132.9l-2.38-.13c3.54-65.56,22.24-111.35,55.59-136.06,3.86-2.85,7.75-5.3,11.64-7.4,1.99-1.08,3.27-3.08,3.51-5.33C293.18,19.86,315.23-.3,341.95,0c18.09.21,34.11,10.03,43.03,24.6Z"/>
          <circle class="cls-6" cx="341.37" cy="51.2" r="42.39" transform="translate(213.09 371.66) rotate(-76.71)"/>
          <circle class="cls-3" cx="342.88" cy="54.63" r="22.68"/>
          <circle class="cls-9" cx="342.88" cy="54.63" r="11.45" transform="translate(210.91 375.78) rotate(-76.71)"/>
          <path class="cls-6" d="m340.71,46.22c0,3.15-2.55,5.7-5.7,5.7s-5.7-2.55-5.7-5.7,2.55-5.7,5.7-5.7,5.7,2.55,5.7,5.7Z"/>
        </g>
        <g>
          <path class="cls-4" d="m456.72,484.36c-9.93,35.56-26.74,61.42-47.6,79.57-61.28,53.37-157.46,40.2-216.53,11.32-25.69-12.56-44.36-28.09-50.09-42.42-23.39-58.5-11.73-63.01,3.81-175.45,8.56-61.89-32.22-200.6,116.54-227.35,153.08-27.53,245.68,168.8,193.88,354.33Z"/>
          <path class="cls-11" d="m456.72,484.36c-14.44,51.7-43.41,82.88-78.21,99.71,29.79-18.6,54.14-49.06,67.12-95.56,40.18-143.89-3.61-294.07-94.8-348.22,97.72,44.54,146.77,197.67,105.89,344.07Z"/>
          <path class="cls-1" d="m357.66,592.29c-87.93,27.52-199.55-20.44-215.16-59.47-23.39-58.5-11.73-63.01,3.81-175.45,8.56-61.89-32.22-200.6,116.54-227.35,2.87-.52,5.7-.95,8.53-1.31-121.82,36.28-85.8,163.49-93.9,222.01-15.54,112.44-27.21,116.96-3.8,175.46,13.81,34.53,102.77,76.06,183.99,66.1Z"/>
        </g>
        <path class="cls-5" d="m215.27,142.76c5.83-30.85,35.24-22.4,47.04-40.09,11.8-17.7,22.63-17.8,22.63-17.8,0,0-7.07,8.78-6.7,16.92,0,0,20.3-13.93,28.61-4.65,0,0-10.88,5.28-13.81,15.7,0,0,28.12-6.44,36.27,18.36,0,0-10.02-5.97-18.42-.9,0,0,16.39,14.08,3.29,34.06,0,0-7.71-15.84-21.24-20,0,0,1.59,22.2-11.97,29.22,0,0-.74-16.27-11.52-21.34s-15.29,10.37-34.74,5.02c-19.81-5.45-19.43-14.49-19.43-14.49Z"/>
        <path class="cls-12" d="m246.77,118.71s-31.35,14.85-20.23,27.64c11.11,12.79,38.27-18.7,57.62-1.75,0,0,2.56-6.48.43-10.92,0,0,6.24-4.42,13.81.68,0,0-3.4-10.33-12.04-10.46,0,0-2.4-4.54-.65-8.95,0,0-5.19-3.55-7.29,2.51,0,0-5.3-4.77-5.1-7.55,0,0-4.54,3.13-2.3,7.32,0,0-6.02-4.48-24.26,1.48Z"/>
        <g>
          <g>
            <path class="cls-6" d="m248.37,356.14c-.01,4.12-.18,7.03-.18,7.03l-2.56-.15h-.01c-4.41-1.95-8.66-4.17-12.75-6.71l-2.72-1.77c-.91-.57-1.8-1.2-2.66-1.86l-2.59-1.95c-.87-.64-1.65-1.39-2.47-2.09-.49-.41-.97-.82-1.44-1.26h-.01s-.78-2.35-.78-2.35c0,0,.21-.3.6-.82,2.46-3.31,12.05-15.46,20.09-15.33,6.58.11,7.51,17.25,7.48,27.26Z"/>
            <path class="cls-6" d="m395.61,345.03l-.44,1.31c-.82.79-1.68,1.56-2.56,2.3-.82.69-1.61,1.46-2.48,2.09l-2.59,1.95c-.86.66-1.74,1.29-2.66,1.86l-2.71,1.77c-4.13,2.57-8.46,4.81-12.91,6.78l-1.65.1s-.18-3-.18-7.24c-.01-10.02.95-26.94,7.49-27.05,7.78-.13,17.03,11.27,19.83,15,.55.73.86,1.15.86,1.15Z"/>
            <g>
              <circle class="cls-8" cx="296.57" cy="258.87" r="69.48" transform="translate(-96.19 285.53) rotate(-45)"/>
              <circle class="cls-6" cx="303.85" cy="251.59" r="69.48" transform="translate(-88.9 288.55) rotate(-45)"/>
              <circle class="cls-3" cx="306.33" cy="257.21" r="37.17" transform="translate(-92.15 291.94) rotate(-45)"/>
              <circle class="cls-9" cx="306.33" cy="257.21" r="18.76"/>
              <circle class="cls-6" cx="293.52" cy="243.51" r="9.34"/>
            </g>
            <path class="cls-8" d="m401.43,339.32c-.08.1-.17.21-.25.31-1.83,2.34-3.83,4.6-6.01,6.7-.82.79-1.68,1.56-2.56,2.3-.82.69-1.61,1.46-2.48,2.09l-2.59,1.95c-.86.66-1.74,1.29-2.66,1.86l-2.71,1.77c-4.13,2.57-8.46,4.81-12.91,6.78-3.47,1.55-7.03,2.92-10.62,4.14-16.45,5.54-33.82,7.98-51.11,8.07-17.28-.07-34.66-2.52-51.1-8.05-3.65-1.23-7.25-2.63-10.78-4.21h-.01c-4.41-1.95-8.66-4.17-12.75-6.71l-2.72-1.77c-.91-.57-1.8-1.2-2.66-1.86l-2.59-1.95c-.87-.64-1.65-1.39-2.47-2.09-.49-.41-.97-.82-1.44-1.26h-.01c-2.6-2.36-4.94-4.98-7.08-7.69h-.01s-.01-.02-.02-.03c-.09-.11-.18-.22-.26-.33.88.61,1.75,1.22,2.59,1.85l1.28.92c.44.29.89.56,1.34.83l1.99,1.27.65.41c.88.56,1.82,1.02,2.72,1.54.92.48,1.8,1.02,2.74,1.47l2.79,1.36c1.82.96,3.78,1.68,5.65,2.52,4.26,1.77,8.61,3.31,13.02,4.64,3.45,1.05,6.92,1.98,10.43,2.79,15.96,3.71,32.35,5.27,48.73,5.36,16.37-.08,32.75-1.64,48.72-5.35,3.76-.88,7.49-1.87,11.19-3.01,4.15-1.29,8.24-2.75,12.26-4.42,1.88-.83,3.82-1.57,5.65-2.52l2.79-1.36c.94-.46,1.82-.99,2.74-1.48.9-.51,1.85-.98,2.72-1.53l1.17-.75,1.47-.95c.45-.27.9-.54,1.34-.83l1.27-.92c.84-.61,1.71-1.23,2.59-1.85Z"/>
            <path class="cls-11" d="m401.43,339.32c-.08.1-.17.21-.25.31-.52.45-1.06.89-1.6,1.31-.89.69-1.75,1.46-2.68,2.09l-2.81,1.95c-.92.66-1.87,1.29-2.87,1.86l-2.94,1.77c-4.46,2.57-9.15,4.81-13.97,6.78-3.76,1.55-7.6,2.92-11.49,4.14-17.8,5.54-36.59,7.98-55.3,8.07-18.7-.07-37.49-2.52-55.29-8.05-3.94-1.23-7.84-2.63-11.66-4.21h-.01c-4.77-1.95-9.37-4.17-13.79-6.71l-2.95-1.77c-.99-.57-1.96-1.2-2.88-1.86l-2.81-1.95c-.93-.64-1.78-1.39-2.67-2.09-.54-.41-1.04-.82-1.56-1.26h-.01s-.01-.02-.02-.03c-.09-.11-.18-.22-.26-.33.88.61,1.75,1.22,2.59,1.85l1.28.92c.44.29.89.56,1.34.83l1.99,1.27.65.41c.88.56,1.82,1.02,2.72,1.54.92.48,1.8,1.02,2.74,1.47l2.79,1.36c1.82.96,3.78,1.68,5.65,2.52,4.26,1.77,8.61,3.31,13.02,4.64,3.45,1.05,6.92,1.98,10.43,2.79,15.96,3.71,32.35,5.27,48.73,5.36,16.37-.08,32.75-1.64,48.72-5.35,3.76-.88,7.49-1.87,11.19-3.01,4.15-1.29,8.24-2.75,12.26-4.42,1.88-.83,3.82-1.57,5.65-2.52l2.79-1.36c.94-.46,1.82-.99,2.74-1.48.9-.51,1.85-.98,2.72-1.53l1.17-.75,1.47-.95c.45-.27.9-.54,1.34-.83l1.27-.92c.84-.62,1.71-1.23,2.59-1.85Z"/>
          </g>
          <path class="cls-8" d="m382.03,379.9c-10.2,8.37-22.22,14.55-34.91,18.76-12.73,4.18-26.11,6.28-39.6,6.39-13.5-.07-26.89-2.17-39.62-6.35-12.69-4.2-24.71-10.39-34.9-18.78,12.44,4.34,24.66,8.04,37.09,10.42,12.38,2.42,24.95,3.63,37.42,3.72,12.47-.11,25.05-1.32,37.43-3.74,12.43-2.37,24.66-6.07,37.09-10.43Z"/>
          <g>
            <path class="cls-8" d="m327.76,465.43h0s0-.02,0,0Z"/>
            <path class="cls-8" d="m353,480.35c-.16-.12-.49-.45-.75-.71-.27-.28-.54-.57-.81-.87-.54-.6-1.06-1.24-1.56-1.89-1-1.31-1.95-2.69-2.8-4.14-1.69-2.9-3.11-6.02-4.13-9.31-.52-1.64-.97-3.32-1.29-5.03-.37-1.71-.62-3.44-.79-5.2-.32-3.51-.35-7.1-.1-10.72-1.14,3.44-1.93,7.04-2.28,10.72-.38,3.68-.31,7.45.23,11.18.55,3.74,1.55,7.45,3.05,10.99.37.88.77,1.74,1.19,2.6-2.27-.66-4.4-1.61-6.35-2.78-2.01-1.22-3.81-2.71-5.34-4.43-.76-.86-1.47-1.76-2.09-2.7-.3-.47-.59-.95-.85-1.43-.13-.24-.25-.48-.35-.7l-.15-.33c-.03-.06-.06-.15-.07-.18l-5.64-10.05s-5.19,17.88-5.91,21.4l-.73,3.65c-1.41-.97-2.72-2.08-3.93-3.32-1.34-1.37-2.56-2.89-3.61-4.52-.53-.82-1.02-1.66-1.45-2.51-.22-.43-.42-.86-.61-1.28l-.26-.62-.18-.46-3.59-9.43-6.01,7.83c-1.2,1.56-2.56,3.01-4.13,4.26-1.56,1.27-3.29,2.36-5.15,3.28-1.67.84-3.44,1.55-5.27,2.12.13-1.28.25-2.56.33-3.84.12-1.93.2-3.87.18-5.8,0-1.96-.06-3.8-.21-5.92l-.73-9.96-7.18,6.65c-1.35,1.26-2.85,2.31-4.44,3.18-1.61.86-3.33,1.5-5.15,1.91-1.82.39-3.72.58-5.65.55-.52-.01-1.03-.04-1.55-.08.39-.95.78-1.9,1.14-2.86.49-1.27.93-2.58,1.38-3.86.42-1.31.82-2.62,1.2-3.93.73-2.65,1.33-5.34,1.67-8.08.16-1.37.33-2.74.29-4.12-.03-1.37-.07-2.78-.51-4.07-.21,2.68-1.24,5.13-2.21,7.55-1.05,2.4-2.23,4.73-3.47,7.03-1.25,2.29-2.57,4.55-3.93,6.78l-2.07,3.33-2.13,3.29-2.37,3.67,4.35,1.7c.46.18.71.27,1.05.38l.94.3c.62.18,1.24.35,1.87.49,1.25.28,2.51.5,3.78.64,2.54.28,5.15.24,7.75-.14,2.07-.31,4.13-.85,6.12-1.61-.06.73-.12,1.45-.2,2.17-.18,1.73-.41,3.45-.7,5.14-.27,1.7-.65,3.36-1.02,5.02l-1.51,6.77,6.9-.35c.54-.03.83-.05,1.22-.09l1.06-.12c.7-.09,1.38-.19,2.06-.31,1.36-.24,2.7-.53,4.03-.89,2.65-.72,5.27-1.65,7.78-2.87,2.51-1.23,4.94-2.72,7.18-4.51.1-.08.2-.17.3-.26,1.44,2.19,3.11,4.24,4.98,6.12,1.91,1.89,4.06,3.58,6.36,5.01,2.31,1.43,4.79,2.58,7.35,3.44l5.94,2.01.96-6.07c.56-3.52,1.14-7.05,1.73-10.58,1.93,1.65,4.03,3.06,6.25,4.2,2.83,1.45,5.85,2.46,8.88,3.05,3.04.6,6.09.84,9.08.75l10.29-.31-7.7-5.93Z"/>
          </g>
        </g>
      </g>
    </g>
  </g>
</svg>