<?xml version="1.0" encoding="UTF-8"?>
<svg id="Layer_2" data-name="Layer 2" xmlns="http://www.w3.org/2000/svg" viewBox="0 0 547.22 665.93">
  <defs>
    <style>
      .cls-1 {
        fill: #c9ecf4;
      }

      .cls-1, .cls-2, .cls-3, .cls-4, .cls-5, .cls-6, .cls-7, .cls-8, .cls-9, .cls-10, .cls-11, .cls-12, .cls-13, .cls-14 {
        stroke-width: 0px;
      }

      .cls-2 {
        fill: #992f1d;
      }

      .cls-15 {
        opacity: .7;
      }

      .cls-3 {
        fill: #44f2d1;
      }

      .cls-4 {
        fill: #433352;
      }

      .cls-5 {
        fill: #005948;
      }

      .cls-6 {
        fill: #fff;
      }

      .cls-7 {
        fill: #31e8c5;
      }

      .cls-8 {
        fill: #02a484;
      }

      .cls-9 {
        fill: #530700;
      }

      .cls-10 {
        fill: #625275;
      }

      .cls-11 {
        fill: #fffa9c;
      }

      .cls-12 {
        fill: #600100;
      }

      .cls-13 {
        fill: #a32440;
      }

      .cls-14 {
        fill: #006d58;
      }
    </style>
  </defs>
  <g id="Layer_1-2" data-name="Layer 1">
    <g>
      <ellipse class="cls-1" cx="228.36" cy="648.32" rx="206.5" ry="17.61"/>
      <g>
        <g>
          <g>
            <path class="cls-8" d="m424.31,632c-.69,1.2-1.5,2.43-2.47,3.68,0,0-5.16,22.53-31.89,15.67,0,0-1.43,1.18-4.41,2.4-5.49,2.25-16.26,4.64-33.12.1-10.47-2.82-18.29-2.18-24.4-1.71-9.05.67-14.35.91-18.94-11.23-7.54-19.9,8.48-26.22-.46-87.22-.18-1.3-.39-2.63-.59-3.98-10.24-64.72,79.55-53.64,79.55-53.64,0,0,5.08,13.85,9.82,33.05.39,1.57.78,3.17,1.15,4.82,4.49,19.3,8.26,42.95,6.45,63.29,0,0,31.79,12.94,19.3,34.78Z"/>
            <path class="cls-5" d="m411.17,621.28c6.8,2.25,10.67,14.4,10.67,14.4.97-1.25,1.78-2.48,2.46-3.67-6.24-11.41-13.13-10.72-13.13-10.72Z"/>
            <path class="cls-5" d="m385.54,653.74c2.98-1.22,4.41-2.4,4.41-2.4,0,0,.79-18.24-15.59-21.64.51.27,10.28,5.52,11.18,24.03Z"/>
          </g>
          <path class="cls-14" d="m399.06,530.45s-.05,1.25-.5,3.48c-1.9,9.52-10.87,36.85-52.43,61.52-27.12,16.1-25.59,38.82-18.1,56.67-9.05.67-14.35.91-18.94-11.23-7.54-19.9,8.48-26.22-.46-87.22,24.92-22.83,52.69-47.7,54.93-48.1,3.47-.65,27.31,18.28,33.85,23.54,1.05.85,1.66,1.34,1.66,1.34Z"/>
        </g>
        <g>
          <g>
            <path class="cls-8" d="m179.07,527.41c-4.53,21.15-13.19,52.85-27.62,75.2,0,0,22.1,26.26.87,39.76-1.15.74-2.45,1.45-3.89,2.11,0,0-15.06,17.51-35.51-.99,0,0-1.81.36-5.02.07-5.9-.57-16.55-3.48-29.35-15.35-19.72-18.3-34.99-10.05-32.32-31.64,2.59-20.93,19.42-19.27,39.68-75.8.63-1.74,1.25-3.54,1.88-5.38,5.98-17.58,16.22-26.03,27.83-29.12,29.39-7.8,67.54,18.71,67.54,18.71,0,0-1.22,9.13-4.08,22.44Z"/>
            <path class="cls-5" d="m145.7,626.77c4.97,5.16,2.73,17.71,2.73,17.71,1.44-.65,2.73-1.37,3.89-2.1-.21-13-6.62-15.61-6.62-15.61Z"/>
            <path class="cls-5" d="m107.9,643.55c3.21.31,5.02-.07,5.02-.07,0,0,9.19-15.77-3.72-26.41.33.47,6.53,9.67-1.3,26.47Z"/>
          </g>
          <path class="cls-14" d="m179.07,527.41c-4.53,21.15-13.19,52.85-27.62,75.2,0,0-27.07-5.01-65.55-81.85.63-1.74,1.25-3.54,1.88-5.38,5.98-17.58,16.22-26.03,27.83-29.12,23.69,6.79,49.88,20.8,49.88,20.8,0,0,6.59,9.49,13.58,20.35Z"/>
        </g>
        <g>
          <g>
            <path class="cls-8" d="m526.23,205.89s-.01.02-.01.08c-.13,1.58-2.66,26.93-27.89,28.63,0,0-10.44,75.89-76.29,92.24-7.04,1.76-14.72,2.82-23.1,3.04l-52.83-42.84,28.49-31.44s44.6-.57,74.94-50.99c0,0-14.56-24.82-8.91-42.98,5.66-18.15,26.04,11.36,26.04,11.36,0,0,9.87-34.92,22.2-33.94,12.34.97,10.14,21.58,10.14,21.58,0,0,17.51-15.01,24.68-6.03,7.18,8.97-1.86,26.95-1.86,26.95,0,0,23.94-7.91,25.33,1.52,1.37,9.42-20.93,22.82-20.93,22.82Z"/>
            <path class="cls-3" d="m454.81,204.97c-30.34,50.42-74.94,50.99-74.94,50.99l-28.49,31.44,52.11,42.26c-1.49.11-3.01.18-4.55.22l-52.83-42.84,28.49-31.44s44.6-.57,74.94-50.99c0,0-14.56-24.82-8.91-42.98,1.88-6.03,5.38-6.8,9.23-5.13-1.64.71-3.01,2.42-3.97,5.49-5.65,18.16,8.91,42.98,8.91,42.98Z"/>
            <g class="cls-15">
              <path class="cls-14" d="m472.28,173.25c5.09.85,9.9,2.04,14.55,3.56,4.65,1.51,9.09,3.42,13.29,5.74,4.21,2.31,8.16,5.07,11.9,8.2,3.73,3.15,7.22,6.67,10.8,10.42-1.62-4.93-4.35-9.47-7.76-13.48-3.45-3.98-7.63-7.39-12.3-9.94-4.65-2.57-9.75-4.31-14.94-5.12-2.6-.4-5.22-.6-7.83-.51-2.61.12-5.22.36-7.71,1.14Z"/>
            </g>
          </g>
          <g class="cls-15">
            <path class="cls-14" d="m526.22,205.96c-.13,1.58-2.66,26.93-27.89,28.63,0,0-10.44,75.89-76.29,92.24-21.48-12.87-49.39-32.99-5.44-32.17,63.52,1.18,77.25-70.38,77.25-70.38,24.45,6.72,31.9-16.81,32.36-18.33Z"/>
          </g>
        </g>
        <g>
          <path class="cls-8" d="m414.47,502.94c-6.23,13.65-13.59,25.73-21.85,36.37-55.49,71.4-151.93,77.27-224.04,48.47-64.06-25.57-108.91-78.51-88.77-137.15,30.41-88.53,80.11-129.94,57.52-222.94-22.58-93,49.93-157.72,119.05-152.91,165.5,11.48,245.76,236.21,158.09,428.17Z"/>
          <path class="cls-3" d="m414.47,502.94c-1.89,4.15-3.89,8.15-6,12.02,77.74-176.61,21.95-377.69-109.88-432.19,136.27,43.34,195.72,245.34,115.88,420.17Z"/>
          <path class="cls-7" d="m392.62,539.31c-55.49,71.4-151.93,77.27-224.04,48.47-5.34-23.38-3.92-49.05,5.53-73.76,23.93-62.61,90.41-95.35,148.45-73.16,41.1,15.72,66.96,54.76,70.06,98.45Z"/>
          <g class="cls-15">
            <path class="cls-14" d="m413.81,504.36c-6.09,13.06-13.22,24.69-21.2,34.95-55.49,71.4-151.93,77.27-224.04,48.47-64.06-25.57-108.91-78.51-88.77-137.15,30.41-88.53,80.11-129.94,57.52-222.94-21.56-88.81,43.59-151.83,109.7-153.15-43.05,19.78-74.99,69.22-59.83,132.97,20.57,86.44-24.68,124.94-52.37,207.22-18.34,54.51,22.5,103.71,80.82,127.48,63.19,25.77,146.92,21.67,198.15-37.85Z"/>
          </g>
        </g>
        <g>
          <path class="cls-4" d="m321.1,106.52s-56.13-40.47-117.81-21.85c0,0-36.86-64.21,41.07-84.67l-4.03,29.19s29.69-22.92,75.08-12.43l-27.44,13.81s50.51,4,33.13,75.96Z"/>
          <path class="cls-10" d="m313.52,87.01s-46.45-38.33-102.91-9.62c0,0,2.92-19.11,17.87-30.98l2.76,6.59s21.13-21.71,66.43-10.03l-11.37,4.49s23.69,4.27,27.22,39.54Z"/>
        </g>
        <g>
          <g>
            <path class="cls-8" d="m186.49,351.16s-.01.02-.03.05c-2.02,2.64-4.38,5.08-7.08,7.26l-16.27,13.2-4.93,4c-1.47-.04-2.92-.1-4.36-.2-88.44-5.37-101.66-101.45-101.66-101.45-27.78-1.88-29.76-30.63-29.76-30.63,0,0-23.79-14.31-22.33-24.35,1.47-10.05,27.03-1.61,27.03-1.61,0,0-9.65-19.2-2-28.77,7.66-9.57,26.34,6.45,26.34,6.45,0,0-2.34-22,10.81-23.03,13.16-1.03,23.69,36.21,23.69,36.21,0,0,21.75-31.49,27.78-12.12,6.03,19.37-9.5,45.85-9.5,45.85,32.37,53.8,79.95,54.41,79.95,54.41,14.16,15.62,14.58,38.7,2.34,54.72Z"/>
            <path class="cls-3" d="m187.75,303.44s-53.05-.69-89.13-60.67c0,0,17.32-29.52,10.59-51.12-.18-.57-.37-1.11-.58-1.6,2.11.49,3.9,2.33,5.09,6.14,6.03,19.37-9.5,45.85-9.5,45.85,32.37,53.79,79.95,54.41,79.95,54.41,3.44,3.79,5.19,8.76,3.59,7Z"/>
            <g class="cls-15">
              <path class="cls-14" d="m79.95,208.58c-5.43.9-10.56,2.17-15.52,3.8-4.96,1.61-9.69,3.64-14.18,6.12-4.49,2.46-8.7,5.41-12.7,8.74-3.98,3.36-7.7,7.12-11.52,11.12,1.73-5.26,4.64-10.1,8.28-14.39,3.68-4.24,8.14-7.89,13.12-10.61,4.96-2.74,10.4-4.6,15.94-5.46,2.77-.43,5.57-.64,8.36-.54,2.78.13,5.57.39,8.23,1.22Z"/>
            </g>
          </g>
          <g class="cls-15">
            <path class="cls-14" d="m186.49,351.16s-.01.02-.03.05c-.49.88-7.23,12.43-23.35,20.46-2.81,1.39-5.9,2.69-9.3,3.8-88.44-5.37-101.66-101.45-101.66-101.45-27.78-1.88-29.76-30.63-29.76-30.63,0,0,10.79,24.27,36.54,19.12,0,0,9.9,80.24,104.6,85.49,10.73.59,18.2,1.68,22.95,3.15Z"/>
          </g>
        </g>
        <g>
          <g>
            <g>
              <circle class="cls-14" cx="359.15" cy="228.2" r="41.91"/>
              <circle class="cls-6" cx="363.54" cy="223.81" r="41.91"/>
              <circle class="cls-2" cx="351.39" cy="227.2" r="22.42"/>
              <circle class="cls-9" cx="351.44" cy="227.18" r="11.32" transform="translate(70.9 537.68) rotate(-80.78)"/>
              <path class="cls-6" d="m349.29,218.94c0,3.11-2.52,5.64-5.64,5.64s-5.64-2.52-5.64-5.64,2.52-5.64,5.64-5.64,5.64,2.52,5.64,5.64Z"/>
            </g>
            <g>
              <circle class="cls-14" cx="296.72" cy="163.62" r="38.1"/>
              <circle class="cls-6" cx="301.11" cy="158.12" r="38.1"/>
              <circle class="cls-2" cx="290.11" cy="161.18" r="20.39"/>
              <circle class="cls-9" cx="290.16" cy="161.34" r="10.29" transform="translate(66.46 406.66) rotate(-76.71)"/>
              <path class="cls-6" d="m288.16,153.7c0,2.83-2.29,5.12-5.12,5.12s-5.12-2.29-5.12-5.12,2.29-5.12,5.12-5.12,5.12,2.29,5.12,5.12Z"/>
            </g>
            <g>
              <circle class="cls-14" cx="246.11" cy="238.43" r="41.91"/>
              <circle class="cls-6" cx="250.51" cy="234.04" r="41.91"/>
              <circle class="cls-2" cx="238.35" cy="237.43" r="22.42"/>
              <circle class="cls-9" cx="238.35" cy="237.43" r="11.32"/>
              <path class="cls-6" d="m236.26,229.17c0,3.11-2.52,5.64-5.64,5.64s-5.64-2.52-5.64-5.64,2.52-5.64,5.64-5.64,5.64,2.52,5.64,5.64Z"/>
            </g>
          </g>
          <g>
            <path class="cls-5" d="m282.84,407.8c4.81,1.64,9.56,3.07,14.42,3.98,4.84.94,9.7,1.55,14.58,1.85,9.74.62,19.58.08,29.25-1.08,4.81-.66,9.58-1.54,14.25-2.73,4.65-1.24,9.19-2.85,13.53-4.88,8.71-4.04,16.47-10.14,22.78-18.11-1.83,4.74-4.65,9.14-8.06,13.06-3.44,3.91-7.56,7.26-12.04,9.98-4.49,2.73-9.34,4.83-14.31,6.44-4.99,1.55-10.1,2.59-15.23,3.31-10.25,1.23-20.61,1.29-30.83-.44-5.09-.88-10.11-2.2-14.91-4.07-4.78-1.91-9.36-4.29-13.43-7.33Z"/>
            <g>
              <path class="cls-12" d="m287.04,392.18c12.11,6.49,28.1,9.96,49.17,8.19,27.64-2.33,43.09-13.38,51.25-27.54,18.16-31.44.34-78.16.34-78.16,0,0-4.12,3.41-11.89,7.71-5.23,2.89-12.12,6.19-20.53,9.12-4.6,1.61-9.68,3.1-15.19,4.37-6.71,1.53-14.07,2.71-22.03,3.31-4.83.36-9.86.49-15.1.37-7.08-.16-14.54-.8-22.37-2.07-9.8-1.58-20.15-4.1-31.02-7.83,0,0-5.16,59.8,37.39,82.53Z"/>
              <path class="cls-13" d="m287.04,392.18c12.11,6.49,28.1,9.96,49.17,8.19,27.64-2.33,43.09-13.38,51.25-27.54-10.83-12.46-26.8-20.32-44.59-20.32-25.83,0-47.79,16.57-55.83,39.68Z"/>
              <path class="cls-11" d="m355.38,311.49c5.07,11.46,13.77,18.71,19.45,16.2,5.68-2.51,6.16-13.85,1.08-25.32-5.23,2.89-12.12,6.19-20.53,9.12Z"/>
              <path class="cls-11" d="m289.04,341.78c6.16.75,12.37-8.74,13.9-21.19.04-.35.07-.7.11-1.05-7.08-.16-14.54-.8-22.37-2.07-.01.14-.04.26-.05.39-1.53,12.46,2.24,23.15,8.41,23.91Z"/>
              <path class="cls-11" d="m318.15,319.18c2.1,10.86,7.79,18.71,13.42,18.01,5.74-.71,9.37-10.02,8.62-21.32-6.71,1.53-14.07,2.71-22.03,3.31Z"/>
            </g>
            <path class="cls-5" d="m381.98,278.53s-1.79,22.84,23.48,20.06c0,0-16.79-3.9-23.48-20.06Z"/>
            <path class="cls-5" d="m254.9,295.01s1.79,22.84-23.48,20.06c0,0,16.8-3.9,23.48-20.06Z"/>
          </g>
        </g>
      </g>
    </g>
  </g>
</svg>