<?xml version="1.0" encoding="UTF-8"?>
<svg id="Layer_2" data-name="Layer 2" xmlns="http://www.w3.org/2000/svg" viewBox="0 0 671.63 639.47">
  <defs>
    <style>
      .cls-1 {
        fill: #776993;
      }

      .cls-1, .cls-2, .cls-3, .cls-4, .cls-5, .cls-6, .cls-7, .cls-8, .cls-9, .cls-10, .cls-11, .cls-12, .cls-13 {
        stroke-width: 0px;
      }

      .cls-2 {
        fill: #249fbe;
      }

      .cls-14 {
        opacity: .5;
      }

      .cls-3 {
        fill: #032d38;
      }

      .cls-4 {
        fill: #c9ecf4;
      }

      .cls-5 {
        fill: #2b1f3a;
      }

      .cls-6 {
        fill: #56476d;
      }

      .cls-7 {
        fill: #433352;
      }

      .cls-8 {
        fill: #fff;
      }

      .cls-9 {
        fill: #67557c;
      }

      .cls-10 {
        fill: #958ba3;
      }

      .cls-11 {
        fill: #fffa9c;
      }

      .cls-12 {
        fill: #20172d;
      }

      .cls-13 {
        fill: #1d172b;
      }
    </style>
  </defs>
  <g id="Layer_1-2" data-name="Layer 1">
    <g>
      <ellipse class="cls-4" cx="330.03" cy="621.85" rx="218.31" ry="17.61"/>
      <g>
        <g>
          <g>
            <path class="cls-7" d="m250.24,145.18c.34.88.69,1.76,1.06,2.64,7.15,16.79,19.56,29.48,33.92,36.5l4.81,11.3-66.08,28.15-4.82-11.32c4.9-15.21,4.33-32.95-2.81-49.73-.45-1.05-.92-2.09-1.41-3.1-7.3-15.23-19.04-26.8-32.5-33.38l-5.03-11.82,66.08-28.15,5.03,11.81c-4.64,14.41-4.38,31.1,1.75,47.1Z"/>
            <g>
              <path class="cls-12" d="m243.46,86.28l5.03,11.81c-4.64,14.41-4.38,31.1,1.75,47.1-4.7,3.7-9.95,6.84-15.71,9.3-6.42,2.73-13.02,4.42-19.62,5.14-7.3-15.23-19.04-26.8-32.5-33.38l-5.03-11.82,66.08-28.15Z"/>
              <circle class="cls-7" cx="198.3" cy="69.36" r="69.34"/>
              <circle class="cls-8" cx="198.29" cy="69.46" r="57.65" transform="translate(8.96 160.56) rotate(-45)"/>
              <circle class="cls-2" cx="200.05" cy="73.84" r="30.84" transform="translate(35.31 209.24) rotate(-59.68)"/>
              <circle class="cls-3" cx="200.04" cy="73.89" r="15.56" transform="translate(77.22 248.22) rotate(-75.11)"/>
              <path class="cls-8" d="m198.19,62.23c1.68,3.94,6.23,5.77,10.17,4.09,3.94-1.68,5.77-6.23,4.09-10.17-1.68-3.94-6.23-5.77-10.17-4.09-3.94,1.68-5.77,6.23-4.09,10.17Z"/>
            </g>
          </g>
          <g>
            <path class="cls-7" d="m414.87,145.18c-.34.88-.69,1.76-1.06,2.64-7.15,16.79-19.56,29.48-33.92,36.5l-4.81,11.3,66.08,28.15,4.82-11.32c-4.9-15.21-4.33-32.95,2.81-49.73.45-1.05.92-2.09,1.41-3.1,7.3-15.23,19.04-26.8,32.5-33.38l5.03-11.82-66.08-28.15-5.03,11.81c4.64,14.41,4.38,31.1-1.75,47.1Z"/>
            <g>
              <path class="cls-12" d="m421.65,86.28l-5.03,11.81c4.64,14.41,4.38,31.1-1.75,47.1,4.7,3.7,9.95,6.84,15.71,9.3,6.42,2.73,13.02,4.42,19.62,5.14,7.3-15.23,19.04-26.8,32.5-33.38l5.03-11.82-66.08-28.15Z"/>
              <circle class="cls-7" cx="466.72" cy="69.47" r="69.34"/>
              <circle class="cls-8" cx="466.78" cy="69.46" r="57.65" transform="translate(87.6 350.41) rotate(-45)"/>
              <circle class="cls-2" cx="465.17" cy="73.82" r="30.84" transform="translate(266.19 500.71) rotate(-74.03)"/>
              <circle class="cls-3" cx="465.21" cy="73.81" r="15.57" transform="translate(365.87 534.25) rotate(-86.84)"/>
              <path class="cls-8" d="m466.92,62.23c-1.68,3.94-6.23,5.77-10.17,4.09-3.94-1.68-5.77-6.23-4.09-10.17,1.68-3.94,6.23-5.77,10.17-4.09,3.94,1.68,5.77,6.23,4.09,10.17Z"/>
            </g>
          </g>
        </g>
        <g>
          <path class="cls-7" d="m524.81,593.13c-.69,1.2-1.51,2.43-2.47,3.68,0,0-5.16,22.53-31.89,15.67,0,0-1.43,1.18-4.41,2.4-4.81,1.98-13.67,4.04-27.13,1.48-1.9-.36-3.9-.82-5.99-1.38-10.47-2.82-18.29-2.18-24.4-1.71-9.05.67-14.35.91-18.94-11.23-7.54-19.9,8.48-26.22-.46-87.22-.18-1.3-.39-2.63-.59-3.98-10.24-64.72,79.55-53.64,79.55-53.64,0,0,.45,1.22,1.21,3.45,1.78,5.26,5.27,16.11,8.61,29.6.39,1.57.78,3.18,1.15,4.82,4.49,19.31,8.26,42.95,6.45,63.29,0,0,31.79,12.94,19.31,34.78Z"/>
          <path class="cls-5" d="m502.26,574.21c11.57,3.83,18.14,24.49,18.14,24.49,1.64-2.12,3.02-4.22,4.19-6.25-10.61-19.41-22.33-18.24-22.33-18.24Z"/>
          <path class="cls-5" d="m486.04,617.08c4.86-1.99,7.2-3.91,7.2-3.91,0,0,1.28-29.77-25.45-35.31.84.44,16.78,9,18.25,39.22Z"/>
          <path class="cls-13" d="m448.7,561.39c-36.78,37.32,13.37,52.37,13.37,52.37,0,0-1.18.98-3.15,2.6-1.9-.36-3.9-.82-5.99-1.38-10.47-2.82-18.29-2.18-24.4-1.71-9.05.67-14.35.91-18.94-11.23-7.54-19.9,8.48-26.22-.46-87.22-.18-1.3-.39-2.63-.59-3.98-10.24-64.72,79.55-53.64,79.55-53.64,0,0,.45,1.22,1.21,3.45l-1.68,1.8s-2.14,61.61-38.91,98.94Z"/>
          <path class="cls-8" d="m506.09,583.71s22.9.78,17.32,36.07c0,0-13.48-.34-23.85-4.9-13.41-5.9-7.22-30.05,6.53-31.17Z"/>
          <path class="cls-8" d="m521.52,569.24s16.04.57,12.62,26.33c0,0-3.87-2.71-9.33-5.32-8.38-4-11.72-20.2-3.29-21.02Z"/>
          <path class="cls-8" d="m467.52,592.07s22.9.78,17.32,36.07c0,0-13.48-.34-23.85-4.9-13.41-5.9-7.22-30.05,6.53-31.17Z"/>
        </g>
        <g>
          <path class="cls-7" d="m137.12,593.13c.69,1.2,1.51,2.43,2.47,3.68,0,0,5.16,22.53,31.89,15.67,0,0,1.43,1.18,4.41,2.4,4.81,1.98,13.67,4.04,27.13,1.48,1.9-.36,3.9-.82,5.99-1.38,10.47-2.82,18.29-2.18,24.4-1.71,9.05.67,14.35.91,18.94-11.23,7.54-19.9-8.48-26.22.46-87.22.18-1.3.39-2.63.59-3.98,10.24-64.72-79.55-53.64-79.55-53.64,0,0-.45,1.22-1.21,3.45-1.78,5.26-5.27,16.11-8.61,29.6-.39,1.57-.78,3.18-1.15,4.82-4.49,19.31-8.26,42.95-6.45,63.29,0,0-31.79,12.94-19.3,34.78Z"/>
          <path class="cls-5" d="m159.67,574.21c-11.57,3.83-18.14,24.49-18.14,24.49-1.64-2.12-3.02-4.22-4.19-6.25,10.61-19.41,22.33-18.24,22.33-18.24Z"/>
          <path class="cls-5" d="m175.89,617.08c-4.86-1.99-7.2-3.91-7.2-3.91,0,0-1.28-29.77,25.45-35.31-.84.44-16.78,9-18.25,39.22Z"/>
          <path class="cls-13" d="m213.23,561.39c36.78,37.32-13.37,52.37-13.37,52.37,0,0,1.18.98,3.15,2.6,1.9-.36,3.9-.82,5.99-1.38,10.47-2.82,18.29-2.18,24.4-1.71,9.05.67,14.35.91,18.94-11.23,7.54-19.9-8.48-26.22.46-87.22.18-1.3.39-2.63.59-3.98,10.24-64.72-79.55-53.64-79.55-53.64,0,0-.45,1.22-1.21,3.45l1.68,1.8s2.14,61.61,38.91,98.94Z"/>
          <path class="cls-8" d="m155.84,583.71s-22.9.78-17.32,36.07c0,0,13.48-.34,23.85-4.9,13.41-5.9,7.22-30.05-6.53-31.17Z"/>
          <path class="cls-8" d="m140.41,569.24s-16.04.57-12.62,26.33c0,0,3.87-2.71,9.33-5.32,8.38-4,11.72-20.2,3.29-21.02Z"/>
          <path class="cls-8" d="m194.42,592.07s-22.9.78-17.32,36.07c0,0,13.48-.34,23.85-4.9,13.41-5.9,7.22-30.05-6.53-31.17Z"/>
        </g>
        <g>
          <path class="cls-7" d="m668.49,290.35c2.22,12.54-33.44,11.42-33.44,11.42,0,0-6.41,20.61-31.19,21.46,0,0-43.73,58.77-56.83,59.05-11.18.24-64.38-32-79.7-41.44-2.63-1.61-4.14-2.56-4.14-2.56l-23.68-62.68,13.65-8.36,7.25-4.45s55.15,22.84,82.45,56.83l24.51-24.51s3.9-35.66-10.03-61.28c-5.25-9.66-2.86-14.61,2.76-15.15,9.27-.89,27.35,10.27,34.29,32.14,0,0,16.44-32.07,32.88-32.19,16.25-.12-2.64,35.3-3.05,36.08.74-.61,31.61-26.39,44.83-20.6,13.37,5.84-29.25,43.73-29.25,43.73,0,0,26.47,0,28.7,12.54Z"/>
          <path class="cls-5" d="m607.67,248.28c5.02.56,9.86,2.4,14.31,4.94,4.42,2.59,8.47,6.05,11.53,10.33,1.52,2.14,2.8,4.46,3.79,6.89.95,2.45,1.6,5,1.97,7.58.61,5.17.08,10.36-1.6,15.11-.14-5.03-.59-9.87-1.79-14.44-.65-2.27-1.42-4.48-2.41-6.58-1.01-2.09-2.19-4.1-3.54-5.99-2.7-3.79-6.1-7.09-9.88-10.03-3.79-2.94-7.93-5.5-12.39-7.8Z"/>
          <path class="cls-5" d="m635.05,301.76s-6.41,20.61-31.19,21.46c0,0-43.73,58.77-56.83,59.05-11.18.24-64.38-32-79.7-41.44,1.67-18.98,4.77-42.12,4.77-42.12,0,0,47.64,72.41,73.83,64.34,26.17-8.08,48.19-47.63,48.19-47.63,27.02,1.38,33.7-19.23,33.7-19.23,32.88,7.8,40.68-5.84,40.68-5.84,2.22,12.53-33.44,11.41-33.44,11.41Z"/>
          <path class="cls-1" d="m572.94,298.71l-34.82,30.63c-20.9-33.98-84.97-62.12-84.97-62.12l7.25-4.45s55.15,22.84,82.45,56.83l24.51-24.51s3.9-35.66-10.03-61.28c-5.25-9.66-2.86-14.61,2.76-15.15-2.23,3.05-1.2,8.52,4.77,20.72,12.53,25.62,8.08,59.33,8.08,59.33Z"/>
        </g>
        <g>
          <path class="cls-7" d="m3.15,290.35c-2.22,12.54,33.44,11.42,33.44,11.42,0,0,6.41,20.61,31.19,21.46,0,0,43.73,58.77,56.83,59.05,11.18.24,64.38-32,79.7-41.44,2.63-1.61,4.14-2.56,4.14-2.56l23.68-62.68-13.65-8.36-7.25-4.45s-55.15,22.84-82.45,56.83l-24.51-24.51s-3.9-35.66,10.03-61.28c5.25-9.66,2.86-14.61-2.76-15.15-9.27-.89-27.35,10.27-34.29,32.14,0,0-16.44-32.07-32.88-32.19-16.25-.12,2.64,35.3,3.05,36.08-.74-.61-31.61-26.39-44.83-20.6-13.37,5.84,29.25,43.73,29.25,43.73,0,0-26.47,0-28.7,12.54Z"/>
          <path class="cls-5" d="m63.96,248.28c-5.02.56-9.86,2.4-14.31,4.94-4.42,2.59-8.47,6.05-11.53,10.33-1.52,2.14-2.8,4.46-3.79,6.89-.95,2.45-1.6,5-1.97,7.58-.61,5.17-.08,10.36,1.6,15.11.14-5.03.59-9.87,1.79-14.44.65-2.27,1.42-4.48,2.41-6.58,1.01-2.09,2.19-4.1,3.54-5.99,2.7-3.79,6.1-7.09,9.88-10.03,3.79-2.94,7.94-5.5,12.39-7.8Z"/>
          <path class="cls-5" d="m36.58,301.76s6.41,20.61,31.19,21.46c0,0,43.73,58.77,56.83,59.05,11.18.24,64.38-32,79.7-41.44-1.67-18.98-4.77-42.12-4.77-42.12,0,0-47.64,72.41-73.83,64.34-26.17-8.08-48.19-47.63-48.19-47.63-27.02,1.38-33.7-19.23-33.7-19.23-32.88,7.8-40.68-5.84-40.68-5.84-2.22,12.53,33.44,11.41,33.44,11.41Z"/>
          <path class="cls-1" d="m98.69,298.71l34.82,30.63c20.9-33.98,84.97-62.12,84.97-62.12l-7.25-4.45s-55.15,22.84-82.45,56.83l-24.51-24.51s-3.9-35.66,10.03-61.28c5.25-9.66,2.86-14.61-2.76-15.15,2.23,3.05,1.2,8.52-4.77,20.72-12.53,25.62-8.08,59.33-8.08,59.33Z"/>
        </g>
        <g>
          <path class="cls-7" d="m442.75,535.89c-3.27,2.49-6.68,4.68-10.21,6.56-69.32,36.82-155.04,32.98-209.8-7.53-29.74-21.99-50.36-54.78-54.27-97.77-10.66-117,23.39-280.79,153.76-287.48,200.25-10.26,216.39,313.45,120.51,386.21Z"/>
          <path class="cls-1" d="m356.12,151.29c-8.02-.78-16.38-.97-25.1-.52-130.37,6.69-164.42,170.48-153.76,287.48,3.91,42.98,24.52,75.78,54.27,97.77,21.86,16.17,48.65,26.5,77.36,30.72-32.02-3.29-62.08-14.01-86.15-31.82-29.74-21.99-50.36-54.78-54.27-97.77-10.66-117,23.39-280.79,153.76-287.48,11.95-.62,23.24-.03,33.89,1.61Z"/>
          <path class="cls-9" d="m442.75,535.89c-3.27,2.49-6.68,4.68-10.21,6.56-69.32,36.82-155.04,32.98-209.8-7.53-.94-74.39,25.02-163.5,103.15-167.51,89.19-4.57,123.31,90.75,116.85,168.47Z"/>
          <g>
            <g>
              <path class="cls-11" d="m322.06,282.08v32.08c-12.01-.82-23.94-2.97-35.38-6.83v-25.25h35.38Z"/>
              <path class="cls-11" d="m379.19,282.08v25.26c-11.44,3.87-23.37,6.01-35.38,6.83v-32.09h35.38Z"/>
            </g>
            <path class="cls-5" d="m418.83,280.65c-2.03,3.35-4.48,6.6-7.42,9.33l-1.07,1.08c-.36.35-.76.65-1.14.98l-2.31,1.94c-1.57,1.26-3.25,2.37-4.89,3.57-6.74,4.44-14.11,7.84-21.7,10.52-.37.13-.74.25-1.11.37-11.44,3.87-23.37,6.01-35.38,6.83-3.63.25-7.25.39-10.88.41-3.63-.02-7.25-.15-10.88-.42-12.01-.82-23.94-2.97-35.38-6.83-.37-.12-.74-.24-1.11-.37-7.58-2.68-14.95-6.09-21.7-10.52-1.64-1.2-3.32-2.3-4.88-3.57l-2.32-1.93c-.37-.33-.78-.64-1.13-.99l-1.08-1.08c-2.93-2.72-5.38-5.97-7.42-9.32,5.86,5.3,12.46,9.13,19.4,12.17,6.54,2.81,13.33,4.95,20.23,6.65.44.11.88.22,1.32.32,11.17,2.64,22.59,4.04,34.06,4.6,3.63.18,7.25.28,10.88.3,3.63-.02,7.25-.12,10.88-.31,11.47-.57,22.89-1.98,34.06-4.61.44-.1.88-.21,1.32-.32,6.89-1.68,13.68-3.82,20.23-6.64,6.93-3.04,13.55-6.86,19.4-12.16Z"/>
            <path class="cls-6" d="m418.83,280.65c-.67,1.1-1.38,2.19-2.14,3.25l-1.69,1.29c-1.75,1.26-3.61,2.37-5.43,3.57-7.47,4.44-15.66,7.84-24.07,10.52-.42.13-.82.25-1.23.37-12.69,3.87-25.93,6.01-39.26,6.83-4.02.25-8.04.39-12.06.41-4.02-.02-8.04-.15-12.06-.42-13.33-.82-26.57-2.97-39.26-6.83-.41-.12-.81-.24-1.23-.37-8.41-2.68-16.59-6.09-24.07-10.52-1.81-1.2-3.68-2.3-5.42-3.57l-1.7-1.29c-.77-1.06-1.47-2.14-2.14-3.24,5.86,5.3,12.46,9.13,19.4,12.17,6.54,2.81,13.33,4.95,20.23,6.65.44.11.88.22,1.32.32,11.17,2.64,22.59,4.04,34.06,4.6,3.63.18,7.25.28,10.88.3,3.63-.02,7.25-.12,10.88-.31,11.47-.57,22.89-1.98,34.06-4.61.44-.1.88-.21,1.32-.32,6.89-1.68,13.68-3.82,20.23-6.64,6.93-3.04,13.55-6.87,19.41-12.16Z"/>
            <path class="cls-1" d="m418.83,280.65c-.67,1.1-1.38,2.19-2.14,3.25l-1.69,1.29c-1.75,1.26-3.61,2.37-5.43,3.57-7.47,4.44-15.66,7.84-24.07,10.52-.42.13-.82.25-1.23.37-12.69,3.87-25.93,6.01-39.26,6.83-4.02.25-8.04.39-12.06.41-4.02-.02-8.04-.15-12.06-.42-13.33-.82-26.57-2.97-39.26-6.83-.41-.12-.81-.24-1.23-.37-8.41-2.68-16.59-6.09-24.07-10.52-1.81-1.2-3.68-2.3-5.42-3.57l-1.7-1.29c-.77-1.06-1.47-2.14-2.14-3.24,5.86,5.3,12.46,9.13,19.4,12.17,6.54,2.81,13.33,4.95,20.23,6.65.44.11.88.22,1.32.32,11.17,2.64,22.59,4.04,34.06,4.6,3.63.18,7.25.28,10.88.3,3.63-.02,7.25-.12,10.88-.31,11.47-.57,22.89-1.98,34.06-4.61.44-.1.88-.21,1.32-.32,6.89-1.68,13.68-3.82,20.23-6.64,6.93-3.04,13.55-6.87,19.41-12.16Z"/>
            <path class="cls-5" d="m403.98,275.6c2.39-2.27,6.03-3.24,9.55-2.75,3.55.44,6.93,2.43,9.21,5.28,2.3,2.85,3.43,6.62,3.09,10.16-.29,3.53-2.08,6.88-4.83,8.69.85-3.16,1-5.98.51-8.59-.46-2.6-1.53-4.9-3.07-6.84-1.56-1.92-3.55-3.52-5.98-4.53-2.42-1.05-5.23-1.56-8.49-1.42Z"/>
            <path class="cls-5" d="m261.08,275.6c-2.39-2.27-6.03-3.24-9.55-2.75-3.55.44-6.93,2.43-9.21,5.28-2.3,2.85-3.43,6.62-3.09,10.16.29,3.53,2.08,6.88,4.83,8.69-.85-3.16-1-5.98-.51-8.59.46-2.6,1.53-4.9,3.07-6.84,1.56-1.92,3.55-3.52,5.98-4.53,2.42-1.05,5.23-1.56,8.49-1.42Z"/>
            <path class="cls-5" d="m388.2,328.03c-4.02,2.59-8.23,5.06-12.69,6.91-4.45,1.9-9.07,3.41-13.76,4.62-9.41,2.41-19.09,3.5-28.82,3.58-9.73-.08-19.4-1.17-28.81-3.59-4.69-1.21-9.31-2.72-13.76-4.62-4.47-1.85-8.68-4.33-12.69-6.93,2.39.42,4.71.93,7.01,1.46,2.29.54,4.61.91,6.91,1.33,4.6.8,9.2,1.45,13.79,1.97,9.17,1.06,18.4,1.51,27.56,1.6,9.16-.07,18.39-.51,27.56-1.57,4.59-.51,9.18-1.16,13.79-1.97,2.3-.42,4.62-.8,6.91-1.33,2.29-.53,4.61-1.04,7.01-1.46Z"/>
          </g>
          <g class="cls-14">
            <path class="cls-7" d="m442.75,535.89c-3.27,2.49-6.68,4.68-10.21,6.56-69.32,36.82-155.04,32.98-209.8-7.53-4.32-3.19-8.44-6.6-12.35-10.26,54.16,28.04,128.05,27.18,189.19-5.29,3.53-1.88,6.93-4.06,10.21-6.56,74.02-56.18,81.28-261.95-11.43-348.11,126.46,63.84,126.28,309.04,44.39,371.18Z"/>
          </g>
          <g>
            <g>
              <ellipse class="cls-10" cx="358.45" cy="189.51" rx="22.84" ry="20.89"/>
              <circle class="cls-10" cx="267.72" cy="216.53" r="9.74"/>
              <circle class="cls-10" cx="347.86" cy="244.38" r="17.83"/>
              <circle class="cls-10" cx="437" cy="352.46" r="11.4"/>
              <circle class="cls-10" cx="233.03" cy="365.62" r="23.84"/>
              <circle class="cls-10" cx="219.3" cy="426.91" r="8.7"/>
              <circle class="cls-10" cx="220.57" cy="311.72" r="8.7"/>
              <circle class="cls-10" cx="444.26" cy="405.18" r="15.75"/>
            </g>
            <circle class="cls-10" cx="577.02" cy="320.42" r="7.59"/>
            <circle class="cls-10" cx="541" cy="343.15" r="2.89"/>
            <path class="cls-10" d="m517.62,328.01c0,2.31-1.88,4.19-4.19,4.19s-4.19-1.88-4.19-4.19,1.88-4.19,4.19-4.19,4.19,1.88,4.19,4.19Z"/>
            <circle class="cls-10" cx="158.26" cy="320.42" r="8.44"/>
            <path class="cls-10" d="m138.68,346.04c0,2.46-2,4.46-4.46,4.46s-4.46-2-4.46-4.46,2-4.46,4.46-4.46,4.46,2,4.46,4.46Z"/>
            <path class="cls-10" d="m110.28,323.82c0,3.65-2.96,6.6-6.6,6.6s-6.6-2.96-6.6-6.6,2.96-6.6,6.6-6.6,6.6,2.96,6.6,6.6Z"/>
          </g>
        </g>
      </g>
    </g>
  </g>
</svg>