<?xml version="1.0" encoding="UTF-8"?>
<svg id="Layer_2" data-name="Layer 2" xmlns="http://www.w3.org/2000/svg" viewBox="0 0 642.48 621.18">
  <defs>
    <style>
      .cls-1 {
        fill: #610202;
      }

      .cls-1, .cls-2, .cls-3, .cls-4, .cls-5, .cls-6, .cls-7, .cls-8, .cls-9, .cls-10, .cls-11, .cls-12, .cls-13, .cls-14, .cls-15, .cls-16 {
        stroke-width: 0px;
      }

      .cls-2 {
        fill: #d0e000;
      }

      .cls-3 {
        fill: #2d0100;
      }

      .cls-4 {
        fill: #848400;
      }

      .cls-5 {
        fill: #570a04;
      }

      .cls-6 {
        fill: #f3f912;
      }

      .cls-7 {
        fill: #8e8e00;
      }

      .cls-8 {
        fill: #c9ecf4;
      }

      .cls-9 {
        fill: #992f1d;
      }

      .cls-10 {
        fill: #9aa000;
      }

      .cls-17 {
        opacity: .7;
      }

      .cls-11 {
        fill: #a33;
      }

      .cls-12 {
        fill: #fff;
      }

      .cls-13 {
        fill: #fce6bb;
      }

      .cls-14 {
        fill: #530700;
      }

      .cls-15 {
        fill: #fcfc15;
      }

      .cls-16 {
        fill: #a32440;
      }
    </style>
  </defs>
  <g id="Layer_1-2" data-name="Layer 1">
    <g>
      <ellipse class="cls-8" cx="260.73" cy="603.56" rx="260.73" ry="17.61"/>
      <g>
        <g>
          <g>
            <path class="cls-2" d="m268.37,497.11c-6.83,57.94-88.99,38.99-133.57,54.77-44.57,15.78,13.37,52.19,11.14,64.55-.57,3.18-10.34,3.75-24.43,1.8-5.19-.7-10.95-1.76-17.06-3.15-41.93-9.53-99.88-34.83-94.81-74.36,1.87-14.65,7.32-24.5,15.09-32.46,5.78-5.89,12.83-10.72,20.68-15.67,3.71-2.34,7.61-4.71,11.64-7.23,13.98-8.75,29.47-19.28,44.26-36.82,3.65-4.32,7.26-9.08,10.79-14.33,6.4-9.54,12.56-20.72,18.26-34.04,2.58-6.01,5.15-11.82,7.71-17.44,2.89-6.32,5.76-12.39,8.59-18.22,8.95-18.38,17.65-34.31,25.68-47.91,25.26-42.8,43.96-62.41,43.96-62.41,0,0,35.26,110.72,48.05,187.67,3.75,22.5,5.57,42.13,4.02,55.24Z"/>
            <path class="cls-10" d="m260.73,518.16c-1.83,2.6-3.97,4.92-6.34,6.98-6.64,5.78-15.19,9.57-24.82,12.21-4.59,1.25-9.44,2.24-14.44,3.05-26.83,4.37-58.2,3.65-80.33,11.48-44.57,15.78,13.37,52.19,11.14,64.55-16.71-31.09-111.79-56.55-20.08-91.17,38.89-14.68,59.95-34.48,71.3-52.42.11-.18.21-.34.31-.51,1.58,1.93,5.93,7.03,12.92,13.46,10.75,9.9,27.72,22.93,50.34,32.37Z"/>
          </g>
          <path class="cls-3" d="m128.75,594.65c5.75,10.66-18.24,23.59-23.99,12.92-9.23-17.12-4.71-37.47-4.71-37.47,0,0,19.47,7.42,28.7,24.54Z"/>
          <path class="cls-3" d="m128.75,595.75c5.75,10.66-18.24,23.59-23.99,12.92-9.23-17.12-4.71-37.47-4.71-37.47,0,0,19.47,7.42,28.7,24.54Z"/>
          <path class="cls-3" d="m128.75,596.85c5.75,10.66-18.24,23.59-23.99,12.92-9.23-17.12-4.71-37.47-4.71-37.47,0,0,19.47,7.42,28.7,24.54Z"/>
          <g>
            <g>
              <path class="cls-10" d="m30.04,532.22c-3.93-7.84-5.24-16.34-5.31-23.96,5.78-5.89,12.83-10.72,20.68-15.67,7.44,4.86,15.55,11.93,20.44,21.68,6.75,13.45-29.06,31.41-35.81,17.95Z"/>
              <path class="cls-5" d="m66.37,506.08c6.55,13.06-28.19,30.49-34.74,17.43-10.52-20.97-1.67-46.68-1.67-46.68,0,0,25.9,8.28,36.42,29.25Z"/>
              <path class="cls-3" d="m31.63,523.51c-3.63-7.23-4.95-15.03-5.13-22.15.72,5.21,2.19,10.68,4.8,15.91,6.05,12.06,34.4-2.16,28.35-14.23-5.76-11.48-15.84-19.17-23.11-23.53,8.4,3.91,22.68,12.31,29.83,26.57,6.55,13.06-28.2,30.49-34.74,17.44Z"/>
            </g>
            <g>
              <path class="cls-10" d="m97.23,565.39c3.99,15.16-30.1,24.14-34.1,8.98-6.41-24.34,5.44-48.57,5.44-48.57,0,0,22.25,15.24,28.66,39.59Z"/>
              <path class="cls-3" d="m96.13,557.62c3.99,15.16-30.1,24.14-34.1,8.98-6.41-24.34,5.44-48.57,5.44-48.57,0,0,22.25,15.24,28.66,39.59Z"/>
              <path class="cls-5" d="m92.69,552.88c3.52,13.34-26.5,21.25-30.02,7.91-5.64-21.43,4.79-42.75,4.79-42.75,0,0,19.58,13.42,25.23,34.85Z"/>
            </g>
            <g>
              <path class="cls-10" d="m121.52,618.24c-5.19-.7-10.95-1.76-17.06-3.15-8.14-16.77-3.9-35.86-3.9-35.86,0,0,19.47,7.42,28.7,24.53,2.88,5.35-1.71,11.26-7.73,14.48Z"/>
              <path class="cls-3" d="m128.75,597.95c5.75,10.66-18.24,23.59-23.99,12.92-9.23-17.12-4.71-37.47-4.71-37.47,0,0,19.47,7.42,28.7,24.54Z"/>
              <path class="cls-5" d="m124.63,591.13c4.92,9.14-15.62,20.21-20.55,11.07-7.9-14.67-4.04-32.1-4.04-32.1,0,0,16.68,6.36,24.58,21.02Z"/>
            </g>
            <g>
              <path class="cls-10" d="m60.26,490.82c-1.23-1.76-2.3-3.58-3.22-5.46,13.98-8.75,29.47-19.28,44.26-36.82,2.82,2.37,5.4,5.09,7.57,8.2,10.02,14.28-38.6,48.37-48.61,34.08Z"/>
              <path class="cls-5" d="m108.66,454.21c8.39,11.96-32.33,40.51-40.72,28.55-13.47-19.21-4.02-49.05-4.02-49.05,0,0,31.28,1.3,44.74,20.5Z"/>
              <path class="cls-3" d="m79.99,484.77c11.54-7.12,21.77-18.7,17.16-25.28-8.6-12.27-24.48-17.23-34.82-19.23.8-4.03,1.59-6.55,1.59-6.55,0,0,31.27,1.3,44.74,20.5,6.15,8.78-14.13,26.48-28.68,30.56Z"/>
            </g>
            <g>
              <path class="cls-10" d="m148.36,365.95c-.58-.46-1.15-.93-1.7-1.43,8.95-18.38,17.65-34.31,25.68-47.91,3.61,1.42,7.09,3.32,10.24,5.8,12.79,10.04-21.43,53.59-34.22,43.53Z"/>
              <path class="cls-5" d="m182.4,318.49c11.48,9.02-19.24,48.13-30.73,39.1-18.44-14.49-18.03-45.79-18.03-45.79,0,0,30.32-7.8,48.76,6.69Z"/>
              <path class="cls-3" d="m160.76,357.69c10.72-10.08,19.91-27.3,12.77-32.92-12.09-9.5-29.28-9.42-39.69-8.24-.22-2.93-.2-4.73-.2-4.73,0,0,30.31-7.81,48.76,6.69,9.1,7.15-8.31,33.2-21.65,39.19Z"/>
            </g>
            <g>
              <path class="cls-10" d="m112.09,434.22c6.4-9.54,12.56-20.72,18.26-34.04,2.58-6.01,5.15-11.82,7.71-17.44,3.45,1.45,6.77,3.32,9.8,5.7,13.37,10.51-22.25,55.94-35.78,45.77Z"/>
              <path class="cls-5" d="m148.97,383.86c11.48,9.03-19.24,48.13-30.73,39.1-18.44-14.49-18.03-45.79-18.03-45.79,0,0,30.32-7.8,48.76,6.69Z"/>
              <path class="cls-3" d="m127.34,423.05c9.86-10.21,17.58-25.77,10.86-31.04-11.33-8.91-27.15-9.39-37.66-8.45-.36-3.9-.33-6.4-.33-6.4,0,0,30.31-7.8,48.76,6.69,9.1,7.14-8.3,33.17-21.64,39.19Z"/>
            </g>
          </g>
        </g>
        <g>
          <g>
            <g>
              <path class="cls-10" d="m641.95,444.13c-4.84,11.38-23.68,2.74-23.68,2.74,0,0,8.65,21.38-2.14,25.32-10.78,3.96-24.96-10.34-24.96-10.34,0,0-.12,25.22-9.49,23.54-9.36-1.7-14.98-27.12-14.98-27.12h-.01s-.03-.02-.06-.03c-1.46-.63-24.68-11.09-18.27-35.54,0,0-37.57-18.65-54.89-55.73-6.09-13.04-9.68-28.36-8.26-45.95.58-7.24,2.01-14.86,4.47-22.86l62.19-21.77,3.81-1.33s-.26,6.01.32,15.48c1.45,23.4,8.02,67.96,36.32,95.45,0,0,28.16-5.9,43.58,5.24,2.99,2.16,4.11,4.27,3.95,6.28-.61,8.34-23,14.78-23,14.78,0,0,29.96,20.47,25.11,31.85Z"/>
              <g class="cls-17">
                <path class="cls-10" d="m614.81,417.51c-2.42,4.55-5.08,8.73-8,12.66-2.91,3.92-6.13,7.53-9.67,10.77-3.53,3.26-7.4,6.12-11.56,8.67-4.17,2.54-8.62,4.72-13.32,6.92,5.19.03,10.36-1.11,15.25-3.06,4.87-2.01,9.44-4.88,13.34-8.49,3.92-3.59,7.19-7.87,9.61-12.54,1.21-2.34,2.23-4.76,2.98-7.26.72-2.51,1.32-5.06,1.37-7.67Z"/>
              </g>
            </g>
            <path class="cls-4" d="m566.68,458.25s-.03-.01-.06-.02c-1.46-.63-24.68-11.09-18.27-35.54,0,0-37.57-18.65-54.89-55.73l15.03-56.9,47.18-35.01s.26,5.94.32,15.48c.13,18.13-.45,49.21-4.83,76.97-6.68,42.34,8.91,50.03,8.91,50.03,0,0-10.52,26.78,6.61,40.73Z"/>
          </g>
          <path class="cls-6" d="m639.84,397.49s-8.77-15.29-48.5-7.49c0,0-37.3-29.94-40.21-103.45-.21-5.21-1.23-7.05.74-10.19l3.81-1.33s-.26,6.01.32,15.48c1.45,23.4,8.02,67.96,36.32,95.45,0,0,28.16-5.9,43.58,5.24,2.99,2.16,4.11,4.27,3.95,6.28Z"/>
        </g>
        <g>
          <path class="cls-5" d="m518.67,142.78s-6.23,5.09-17.96,4.41c-10.45-.59-25.26-5.76-43.93-23.11-5.04-4.68-10.36-10.25-15.95-16.87-.94-1.11-1.89-2.25-2.85-3.43,0,0,41.79-15.04,46.92-67.97,2.2-22.62,10.67-29.96,19.65-25.78,17.92,8.36,37.88,62.6,14.13,132.74Z"/>
          <path class="cls-11" d="m506.1,147.1c-1.65.15-3.44.2-5.4.09-10.45-.59-25.26-5.76-43.93-23.11-5.04-4.68-10.36-10.25-15.95-16.87-.94-1.11-1.89-2.25-2.85-3.43,0,0,41.79-15.04,46.92-67.97,2.09-21.54,9.87-29.23,18.36-26.29-5.66,2.2-10.24,10.54-11.77,26.29-5.13,52.93-46.92,67.97-46.92,67.97.96,1.18,1.9,2.32,2.85,3.43,5.59,6.62,10.91,12.19,15.95,16.87,17.97,16.7,32.36,22.11,42.73,23.02Z"/>
          <path class="cls-3" d="m518.67,142.78s-6.23,5.09-17.96,4.41c-14.26-7.38-30.08-15.65-43.93-23.11-33.42-18.02-55.34-31.44-15.95-16.87,1.2.44,2.37,1.18,3.75,1.4,84.98,13.28,61.87-85.93,59.97-98.57,17.92,8.36,37.89,62.6,14.13,132.74Z"/>
        </g>
        <g>
          <g>
            <path class="cls-2" d="m345.46,585.79c-.04.12-.1.24-.15.36-.36.79-.77,1.58-1.23,2.4-.4.68-.82,1.37-1.3,2.08-.45.68-.94,1.36-1.48,2.05-.01.02-.02.04-.04.07,0,0-.03.15-.11.43-.8,2.84-6.14,18.8-25.18,18.95-1.61.01-3.34-.09-5.16-.33-1.88-.23-3.86-.61-5.95-1.15,0,0-.86.7-2.6,1.61-.67.35-1.48.74-2.43,1.12-.01,0-.02.01-.03.01-5.43,2.22-15.33,4.54-30.31,1.79-2.36-.43-4.86-.99-7.47-1.69-2.04-.55-3.99-.98-5.86-1.32-9.1-1.66-16.23-1.08-22.02-.64-10.34.77-16.38,1.04-21.64-12.82-7.92-20.91,6.95-28.7,1.4-84.13,0-.04-.01-.08-.01-.12-.47-4.76-1.11-9.87-1.91-15.36-.2-1.47-.44-3-.67-4.54-.49-3.07-.78-5.99-.89-8.77-1.28-33.26,23.46-46.15,47.56-50.83,24.85-4.85,49.11,10.87,55.22,35.43.06.21.11.43.17.65.44,1.79.89,3.63,1.32,5.51,3.83,16.45,7.2,35.64,7.79,53.98.22,6.25.1,12.39-.43,18.29,0,0,12.07,4.92,19.55,13.87,5.02,5.98,7.99,13.77,3.89,23.1Z"/>
            <path class="cls-10" d="m310.79,611.8c-1.88-.23-3.86-.61-5.95-1.15,0,0-.86.7-2.6,1.61-3.24-29.37-19.19-37.94-20.08-38.4,25.86,5.37,28.43,30.86,28.64,37.94Z"/>
            <path class="cls-13" d="m299.8,613.11c-.01.1-.01.19-.02.29-5.43,2.22-15.33,4.54-30.31,1.79-.29-1-.52-2.03-.69-3.09-1.93-11.53,3.35-22.03,11.82-23.45,6.79-1.14,13.56,3.9,16.96,11.89.86,1.98,1.49,4.13,1.88,6.42.35,2.1.46,4.16.36,6.15Z"/>
            <path class="cls-13" d="m345.31,586.15c-2.37-1.6-4.49-4.1-5.9-7.23-2.89-6.38-1.86-13.22,2.16-16.23,5.09,6.05,8.07,13.98,3.74,23.46Z"/>
            <path class="cls-10" d="m345.46,585.79c-.04.12-.1.24-.15.36-.36.79-.77,1.58-1.23,2.4-.4.68-.82,1.37-1.3,2.08-.45.68-.94,1.36-1.48,2.05-.01.02-.02.04-.04.07,0,0-.03.15-.11.43-.06.08-.12.16-.19.24-.02.03-.03.08-.08.11,0,0-2.07-6.48-5.93-13.34-3.55-6.3-8.67-12.91-15.09-15.04,0,0,13.39-1.34,25.6,20.65Z"/>
            <path class="cls-13" d="m341.3,592.68s-.02.04-.04.07c0,0-4.4,19.22-25.29,19.38-2.26-3.08-3.93-6.98-4.67-11.36-1.93-11.53,3.36-22.03,11.83-23.45,5.51-.93,11,2.22,14.69,7.7,1.49,2.21,2.69,4.8,3.48,7.66Z"/>
          </g>
          <path class="cls-7" d="m229.57,537.34c9.06,19.26,28.02,49.78,26.56,74.83-9.1-1.66-16.23-1.08-22.02-.64-10.34.77-16.38,1.04-21.64-12.82-6.48-17.12,2.31-25.45,2.66-58.31.08-7.28-.25-15.77-1.26-25.82h.04s-.02-.04-.06-.12c-.87-1.69-11.55-22.71-16.7-41.62-.12-.45-.24-.89-.35-1.33.06.07.28.35.66.82,1.58,1.93,5.93,7.03,12.92,13.46,10.74,9.9,27.72,22.93,50.34,32.37,17.33,7.24,37.99,12.37,61.72,12.37-.68.14-28.24,5.81-68.06-5.4-4.14-1.16-8.43-2.52-12.83-4.08-20.17-7.15-19.17,1.03-11.99,16.28Z"/>
        </g>
        <g>
          <g>
            <path class="cls-2" d="m511.37,566.01c-.04.12-.1.24-.15.36-.36.79-.77,1.58-1.23,2.4-.4.68-.82,1.37-1.3,2.08-.45.68-.94,1.36-1.48,2.05-.01.02-.02.04-.04.07,0,0-.03.15-.11.43-.8,2.84-6.14,18.8-25.18,18.95-1.61.01-3.34-.09-5.16-.33-1.88-.23-3.86-.61-5.95-1.15,0,0-.86.7-2.6,1.61-.67.35-1.48.74-2.43,1.12-.01,0-.02.01-.03.01-5.43,2.22-15.33,4.54-30.31,1.79-2.36-.43-4.86-.99-7.47-1.69-.07-.02-.13-.03-.2-.05-11.87-3.15-20.74-2.43-27.68-1.9-10.34.77-16.38,1.04-21.64-12.82-7.46-19.71,5.32-27.76,2.15-75.02-.47-7.22-1.33-15.36-2.68-24.59-.2-1.47-.44-3-.67-4.54-11.7-73.91,90.85-61.27,90.85-61.27,0,0,5.8,15.82,11.22,37.75.44,1.79.89,3.63,1.32,5.51,1.13,4.86,2.22,9.96,3.21,15.21h0c3.52,18.57,5.77,38.96,4.15,57.07,0,0,12.07,4.92,19.55,13.87,5.02,5.98,7.99,13.77,3.89,23.1Z"/>
            <path class="cls-10" d="m476.71,592.02c-1.88-.23-3.86-.61-5.95-1.15,0,0-.86.7-2.6,1.61-3.24-29.37-19.19-37.94-20.08-38.4,25.86,5.37,28.44,30.86,28.64,37.94Z"/>
            <path class="cls-13" d="m465.71,593.33c-.01.1-.01.19-.02.29-5.43,2.22-15.33,4.54-30.31,1.79-.29-1-.52-2.03-.69-3.09-1.93-11.53,3.35-22.03,11.82-23.45,6.79-1.14,13.56,3.9,16.96,11.89.86,1.98,1.49,4.13,1.88,6.42.35,2.1.46,4.16.36,6.15Z"/>
            <path class="cls-13" d="m511.22,566.38c-2.37-1.6-4.49-4.1-5.9-7.23-2.89-6.38-1.86-13.22,2.16-16.23,5.09,6.05,8.07,13.98,3.74,23.46Z"/>
            <path class="cls-10" d="m511.37,566.01c-.04.12-.1.24-.15.36-.36.79-.77,1.58-1.23,2.4-.4.68-.82,1.37-1.3,2.08-.45.68-.94,1.36-1.48,2.05-.01.02-.02.04-.04.07,0,0-.03.15-.11.43-.06.08-.12.16-.19.24-.02.03-.03.08-.08.11,0,0-2.07-6.48-5.93-13.34-3.55-6.3-8.67-12.91-15.09-15.04,0,0,13.39-1.34,25.6,20.65Z"/>
            <path class="cls-13" d="m507.21,572.9s-.02.04-.04.07c0,0-4.4,19.22-25.29,19.38-2.26-3.08-3.93-6.98-4.67-11.36-1.93-11.53,3.36-22.03,11.83-23.45,5.51-.93,11,2.22,14.69,7.7,1.49,2.21,2.69,4.8,3.48,7.66Z"/>
          </g>
          <path class="cls-7" d="m483.78,471.98h0c0,.92-11.76,32.69-59.22,55.48-32.83,15.76-14.72,43.01,3.14,66.2-11.87-3.15-20.74-2.43-27.68-1.9-10.34.77-16.38,1.04-21.64-12.82-7.46-19.71,5.32-27.76,2.15-75.02,12.07-8.92,23.35-16.93,23.35-16.93l79.89-15Z"/>
        </g>
        <g>
          <path class="cls-2" d="m537.05,372.03c-15.39,50.33-39.19,86.56-67.23,111.56-63.06,56.23-147.57,55.66-206.17,31.07-32.3-13.56-56.72-34.41-65.33-57.09-44.57-117.35,26.74-388.24,190.54-382.75,81.67,2.74,217.28,71.29,148.2,297.22Z"/>
          <path class="cls-6" d="m537.05,372.03c-13.72,44.87-34.13,78.54-58.27,103.02,21.36-23.95,39.42-55.66,51.95-96.65,69.66-227.8-67.08-296.92-149.42-299.68-23-.77-44.19,3.87-63.51,12.72,21.28-11.38,44.99-17.5,71.05-16.63,81.67,2.74,217.28,71.29,148.2,297.22Z"/>
          <path class="cls-15" d="m469.82,483.58c-63.06,56.23-147.57,55.66-206.17,31.07,25.49-44.6,63.46-76.76,112.74-75.11,29,.97,67.19,13.15,93.43,44.04Z"/>
        </g>
        <g>
          <g>
            <circle class="cls-10" cx="474.16" cy="196.66" r="40.35"/>
            <circle class="cls-12" cx="478.3" cy="192.33" r="40.35"/>
            <circle class="cls-9" cx="479.83" cy="195.7" r="21.59" transform="translate(179.1 617.71) rotate(-76.71)"/>
            <circle class="cls-14" cx="479.76" cy="195.59" r="10.89"/>
            <path class="cls-12" d="m477.74,187.64c0,3-2.43,5.43-5.43,5.43s-5.43-2.43-5.43-5.43,2.43-5.43,5.43-5.43,5.43,2.43,5.43,5.43Z"/>
          </g>
          <g>
            <circle class="cls-10" cx="352.37" cy="196.56" r="40.35"/>
            <circle class="cls-12" cx="356.69" cy="192.43" r="40.35"/>
            <circle class="cls-9" cx="358.12" cy="195.69" r="21.59" transform="translate(85.37 499.26) rotate(-76.71)"/>
            <circle class="cls-14" cx="358.06" cy="195.59" r="10.89"/>
            <path class="cls-12" d="m356.04,187.64c0,3-2.43,5.43-5.43,5.43s-5.43-2.43-5.43-5.43,2.43-5.43,5.43-5.43c3,0,5.43,2.43,5.43,5.43Z"/>
          </g>
          <g>
            <path class="cls-1" d="m376.82,372.74c7.87,20.4,22.41,35.19,48.1,35.08,21.6-.09,34.54-10.53,41.89-25.88,17.9-37.32,2.69-103.63-1.61-120.39-4.13,3.58-10.09,7.82-17.96,11.12-6.38,2.69-13.99,4.77-22.91,5.39-1.36.11-2.75.16-4.18.19-6.95.14-14.64-.61-23.06-2.6-7.56-1.78-15.72-4.55-24.48-8.57-3.38,21.72-8.94,71.51,4.22,105.65Z"/>
            <path class="cls-10" d="m376.82,388.13c5.19,8.34,10.93,15.99,18.15,21.36,7.17,5.4,15.61,8.36,24.54,9.07,8.96.73,18.14.03,26.29-3.44,8.27-3.34,15.18-9.86,21.01-17.79-.33,1.18-.69,2.37-1.1,3.54-.47,1.14-.88,2.33-1.45,3.44-.52,1.14-1.1,2.26-1.76,3.34-.61,1.11-1.34,2.15-2.09,3.19-2.97,4.16-6.93,7.74-11.47,10.42-4.53,2.7-9.6,4.45-14.73,5.39-2.57.47-5.16.73-7.74.84-1.29.09-2.58.04-3.88,0-1.3-.05-2.59-.02-3.89-.2-1.3-.16-2.59-.28-3.89-.48l-3.86-.78c-2.54-.7-5.08-1.45-7.49-2.55-4.85-2.12-9.31-5.14-13.02-8.81-3.71-3.67-6.69-7.93-8.94-12.44-1.13-2.25-2.07-4.58-2.85-6.94-.35-1.2-.75-2.36-1.06-3.56-.26-1.22-.55-2.41-.78-3.62Z"/>
            <path class="cls-16" d="m376.82,372.74c7.87,20.4,22.41,35.19,48.1,35.08,21.6-.09,34.54-10.53,41.89-25.88-9.37-17.4-24.61-29.2-48.76-29.09-19.51.08-32.63,7.82-41.23,19.89Z"/>
            <path class="cls-13" d="m447.23,272.68c-6.38,2.69-13.99,4.77-22.91,5.39l2.44,39.42,23.16-1.43-2.69-43.38Z"/>
            <path class="cls-13" d="m397.08,275.66l-3.76,38.43,23.09,2.26,3.72-38.09c-6.95.13-14.64-.62-23.06-2.6Z"/>
            <path class="cls-10" d="m362.93,262.26c8.2,5.74,17.15,10.51,26.71,13.97,9.59,3.31,19.8,5.29,30.14,5.18,10.32-.08,20.69-2.53,29.92-7.1,4.62-2.29,8.87-5.26,12.74-8.57,3.8-3.39,7.3-7.15,9.79-11.54-3.58,3.49-7.51,6.49-11.65,9.05-4.11,2.6-8.44,4.78-12.91,6.51-1.1.47-2.26.8-3.39,1.2l-1.69.59-1.73.47-3.45.94-3.51.7-1.75.35-1.77.23-3.54.45c-1.18.12-2.38.15-3.57.23-1.19.05-2.38.19-3.57.15-9.56.1-19.15-1.3-28.62-3.6-9.47-2.39-18.7-5.8-28.14-9.21Z"/>
          </g>
        </g>
        <g>
          <path class="cls-10" d="m273.58,276.31v103.88s-50.34,62.77-70.62-16.7c-.52-2.04-1.01-4.19-1.49-6.42-15.8-73.62,12.28-88.73,28.34-91.56.01,0,.03,0,.04-.01,5.78-1.01,9.99-.43,9.99-.43l33.74,11.24Z"/>
          <g class="cls-17">
            <path class="cls-10" d="m273.58,279.49v100.7s-50.34,62.77-70.62-16.7c6.84-18.15,16.53-36.12,16.53-57.48,0-34.54,9.71-40.18,10.32-40.5.02-.01.03-.01.03-.01h.01l43.73,13.99Z"/>
          </g>
          <path class="cls-10" d="m308.17,300.35c3.37,70.67-39.85,109-66.61,105.75-8.31-1-15.02-6.02-18.26-15.33-13.68-39.25,15.05-86.83,15.05-86.83-16.33-16.76-6.68-46.37-6.68-46.37,0,0-19.39-32.82-14.62-43.59.42-.95,1.02-1.71,1.83-2.29,10.15-7.05,28.68,10.59,28.68,10.59,0,0-2.21-36.61,13.67-37.94,15.88-1.32,21.17,34.85,21.17,34.85,0,0,1.58-31.02,19.4-28.68,16.77,2.21,10.59,64.4,10.59,64.4,0,0,36.19,6.61,36.16,18.52-.07,22.54-40.39,26.91-40.39,26.91Z"/>
          <path class="cls-6" d="m308.17,300.35c3.37,70.67-39.85,109-66.61,105.75,26.68-2.99,63.12-40.63,60.01-105.74,0,0,40.32-4.37,40.39-26.91.03-11.91-36.16-18.52-36.16-18.52,0,0,5.83-58.71-9.22-64.07,1.56-.45,3.3-.58,5.22-.33,16.77,2.21,10.59,64.4,10.59,64.4,0,0,36.19,6.61,36.16,18.52-.07,22.54-40.39,26.91-40.39,26.91Z"/>
          <path class="cls-4" d="m235.19,258.67c-2.54,43.88,30.73,49.62,30.73,49.62-63.15,52.96-24.36,97.81-24.36,97.81-8.31-1-15.02-6.02-18.26-15.33-13.68-39.25,15.05-86.83,15.05-86.83-16.33-16.76-6.68-46.37-6.68-46.37,0,0-19.39-32.82-14.62-43.59,3.25,22.67,15.81,38.37,15.81,38.37,35.66-11.14,62.2-.37,62.2-.37-46.62-6.31-59.87,6.69-59.87,6.69Z"/>
        </g>
        <g>
          <path class="cls-5" d="m349.03,94.87c-.96,1.18-1.9,2.32-2.85,3.43-5.59,6.62-10.91,12.18-15.95,16.87-18.67,17.35-33.48,22.51-43.93,23.11-11.73.68-17.96-4.41-17.96-4.41-23.76-70.14-3.79-124.38,14.13-132.74,8.98-4.19,17.45,3.15,19.65,25.78,5.13,52.93,46.92,67.97,46.92,67.97Z"/>
          <path class="cls-11" d="m349.04,94.86c-.96,1.18-1.9,2.32-2.85,3.43-.52.6-1.02,1.21-1.53,1.79-7.12-3.04-43.12-20.82-47.96-70.78-1.79-18.36-7.52-27.13-14.37-28.12.04-.02.1-.04.14-.07,8.98-4.19,17.45,3.15,19.65,25.78,5.13,52.93,46.92,67.97,46.92,67.97Z"/>
          <path class="cls-3" d="m346.19,98.29c-5.59,6.62-10.91,12.18-15.95,16.87-18.67,17.35-33.48,22.51-43.93,23.11-11.73.68-17.96-4.41-17.96-4.41-23.76-70.14-3.79-124.38,14.13-132.74-1.9,12.64-25.01,111.85,59.97,98.57,1.37-.21,2.55-.96,3.75-1.4Z"/>
        </g>
      </g>
    </g>
  </g>
</svg>